<?xml version="1.0" encoding="utf-8" standalone="no"?>
<!DOCTYPE svg PUBLIC "-//W3C//DTD SVG 1.1//EN"
  "http://www.w3.org/Graphics/SVG/1.1/DTD/svg11.dtd">
<svg height="345.6pt" version="1.1" viewBox="0 0 460.8 345.6" width="460.8pt" xmlns="http://www.w3.org/2000/svg" xmlns:xlink="http://www.w3.org/1999/xlink">
 <metadata>
  <rdf:RDF xmlns:cc="http://creativecommons.org/ns#" xmlns:dc="http://purl.org/dc/elements/1.1/" xmlns:rdf="http://www.w3.org/1999/02/22-rdf-syntax-ns#">
   <cc:Work>
    <dc:type rdf:resource="http://purl.org/dc/dcmitype/StillImage"/>
    <dc:date>2021-09-11T10:35:19.726763</dc:date>
    <dc:format>image/svg+xml</dc:format>
    <dc:creator>
     <cc:Agent>
      <dc:title>Matplotlib v3.4.2, https://matplotlib.org/</dc:title>
     </cc:Agent>
    </dc:creator>
   </cc:Work>
  </rdf:RDF>
 </metadata>
 <defs>
  <style type="text/css">*{stroke-linecap:butt;stroke-linejoin:round;}</style>
 </defs>
 <g id="figure_1">
  <g id="patch_1">
   <path d="M 0 345.6 
L 460.8 345.6 
L 460.8 0 
L 0 0 
z
" style="fill:#ffffff;"/>
  </g>
  <g id="axes_1">
   <g id="patch_2">
    <path d="M 57.6 307.584 
L 414.72 307.584 
L 414.72 41.472 
L 57.6 41.472 
z
" style="fill:#ffffff;"/>
   </g>
   <g id="matplotlib.axis_1">
    <g id="xtick_1">
     <g id="line2d_1">
      <path clip-path="url(#p10783569c0)" d="M 73.442986 307.584 
L 73.442986 41.472 
" style="fill:none;stroke:#b0b0b0;stroke-linecap:square;stroke-width:0.8;"/>
     </g>
     <g id="line2d_2">
      <defs>
       <path d="M 0 0 
L 0 3.5 
" id="m11be5af6eb" style="stroke:#000000;stroke-width:0.8;"/>
      </defs>
      <g>
       <use style="stroke:#000000;stroke-width:0.8;" x="73.442986" xlink:href="#m11be5af6eb" y="307.584"/>
      </g>
     </g>
     <g id="text_1">
      <!-- 0 -->
      <g transform="translate(70.261736 322.182437)scale(0.1 -0.1)">
       <defs>
        <path d="M 2034 4250 
Q 1547 4250 1301 3770 
Q 1056 3291 1056 2328 
Q 1056 1369 1301 889 
Q 1547 409 2034 409 
Q 2525 409 2770 889 
Q 3016 1369 3016 2328 
Q 3016 3291 2770 3770 
Q 2525 4250 2034 4250 
z
M 2034 4750 
Q 2819 4750 3233 4129 
Q 3647 3509 3647 2328 
Q 3647 1150 3233 529 
Q 2819 -91 2034 -91 
Q 1250 -91 836 529 
Q 422 1150 422 2328 
Q 422 3509 836 4129 
Q 1250 4750 2034 4750 
z
" id="DejaVuSans-30" transform="scale(0.015625)"/>
       </defs>
       <use xlink:href="#DejaVuSans-30"/>
      </g>
     </g>
    </g>
    <g id="xtick_2">
     <g id="line2d_3">
      <path clip-path="url(#p10783569c0)" d="M 151.391256 307.584 
L 151.391256 41.472 
" style="fill:none;stroke:#b0b0b0;stroke-linecap:square;stroke-width:0.8;"/>
     </g>
     <g id="line2d_4">
      <g>
       <use style="stroke:#000000;stroke-width:0.8;" x="151.391256" xlink:href="#m11be5af6eb" y="307.584"/>
      </g>
     </g>
     <g id="text_2">
      <!-- 200 -->
      <g transform="translate(141.847506 322.182437)scale(0.1 -0.1)">
       <defs>
        <path d="M 1228 531 
L 3431 531 
L 3431 0 
L 469 0 
L 469 531 
Q 828 903 1448 1529 
Q 2069 2156 2228 2338 
Q 2531 2678 2651 2914 
Q 2772 3150 2772 3378 
Q 2772 3750 2511 3984 
Q 2250 4219 1831 4219 
Q 1534 4219 1204 4116 
Q 875 4013 500 3803 
L 500 4441 
Q 881 4594 1212 4672 
Q 1544 4750 1819 4750 
Q 2544 4750 2975 4387 
Q 3406 4025 3406 3419 
Q 3406 3131 3298 2873 
Q 3191 2616 2906 2266 
Q 2828 2175 2409 1742 
Q 1991 1309 1228 531 
z
" id="DejaVuSans-32" transform="scale(0.015625)"/>
       </defs>
       <use xlink:href="#DejaVuSans-32"/>
       <use x="63.623047" xlink:href="#DejaVuSans-30"/>
       <use x="127.246094" xlink:href="#DejaVuSans-30"/>
      </g>
     </g>
    </g>
    <g id="xtick_3">
     <g id="line2d_5">
      <path clip-path="url(#p10783569c0)" d="M 229.339526 307.584 
L 229.339526 41.472 
" style="fill:none;stroke:#b0b0b0;stroke-linecap:square;stroke-width:0.8;"/>
     </g>
     <g id="line2d_6">
      <g>
       <use style="stroke:#000000;stroke-width:0.8;" x="229.339526" xlink:href="#m11be5af6eb" y="307.584"/>
      </g>
     </g>
     <g id="text_3">
      <!-- 400 -->
      <g transform="translate(219.795776 322.182437)scale(0.1 -0.1)">
       <defs>
        <path d="M 2419 4116 
L 825 1625 
L 2419 1625 
L 2419 4116 
z
M 2253 4666 
L 3047 4666 
L 3047 1625 
L 3713 1625 
L 3713 1100 
L 3047 1100 
L 3047 0 
L 2419 0 
L 2419 1100 
L 313 1100 
L 313 1709 
L 2253 4666 
z
" id="DejaVuSans-34" transform="scale(0.015625)"/>
       </defs>
       <use xlink:href="#DejaVuSans-34"/>
       <use x="63.623047" xlink:href="#DejaVuSans-30"/>
       <use x="127.246094" xlink:href="#DejaVuSans-30"/>
      </g>
     </g>
    </g>
    <g id="xtick_4">
     <g id="line2d_7">
      <path clip-path="url(#p10783569c0)" d="M 307.287797 307.584 
L 307.287797 41.472 
" style="fill:none;stroke:#b0b0b0;stroke-linecap:square;stroke-width:0.8;"/>
     </g>
     <g id="line2d_8">
      <g>
       <use style="stroke:#000000;stroke-width:0.8;" x="307.287797" xlink:href="#m11be5af6eb" y="307.584"/>
      </g>
     </g>
     <g id="text_4">
      <!-- 600 -->
      <g transform="translate(297.744047 322.182437)scale(0.1 -0.1)">
       <defs>
        <path d="M 2113 2584 
Q 1688 2584 1439 2293 
Q 1191 2003 1191 1497 
Q 1191 994 1439 701 
Q 1688 409 2113 409 
Q 2538 409 2786 701 
Q 3034 994 3034 1497 
Q 3034 2003 2786 2293 
Q 2538 2584 2113 2584 
z
M 3366 4563 
L 3366 3988 
Q 3128 4100 2886 4159 
Q 2644 4219 2406 4219 
Q 1781 4219 1451 3797 
Q 1122 3375 1075 2522 
Q 1259 2794 1537 2939 
Q 1816 3084 2150 3084 
Q 2853 3084 3261 2657 
Q 3669 2231 3669 1497 
Q 3669 778 3244 343 
Q 2819 -91 2113 -91 
Q 1303 -91 875 529 
Q 447 1150 447 2328 
Q 447 3434 972 4092 
Q 1497 4750 2381 4750 
Q 2619 4750 2861 4703 
Q 3103 4656 3366 4563 
z
" id="DejaVuSans-36" transform="scale(0.015625)"/>
       </defs>
       <use xlink:href="#DejaVuSans-36"/>
       <use x="63.623047" xlink:href="#DejaVuSans-30"/>
       <use x="127.246094" xlink:href="#DejaVuSans-30"/>
      </g>
     </g>
    </g>
    <g id="xtick_5">
     <g id="line2d_9">
      <path clip-path="url(#p10783569c0)" d="M 385.236067 307.584 
L 385.236067 41.472 
" style="fill:none;stroke:#b0b0b0;stroke-linecap:square;stroke-width:0.8;"/>
     </g>
     <g id="line2d_10">
      <g>
       <use style="stroke:#000000;stroke-width:0.8;" x="385.236067" xlink:href="#m11be5af6eb" y="307.584"/>
      </g>
     </g>
     <g id="text_5">
      <!-- 800 -->
      <g transform="translate(375.692317 322.182437)scale(0.1 -0.1)">
       <defs>
        <path d="M 2034 2216 
Q 1584 2216 1326 1975 
Q 1069 1734 1069 1313 
Q 1069 891 1326 650 
Q 1584 409 2034 409 
Q 2484 409 2743 651 
Q 3003 894 3003 1313 
Q 3003 1734 2745 1975 
Q 2488 2216 2034 2216 
z
M 1403 2484 
Q 997 2584 770 2862 
Q 544 3141 544 3541 
Q 544 4100 942 4425 
Q 1341 4750 2034 4750 
Q 2731 4750 3128 4425 
Q 3525 4100 3525 3541 
Q 3525 3141 3298 2862 
Q 3072 2584 2669 2484 
Q 3125 2378 3379 2068 
Q 3634 1759 3634 1313 
Q 3634 634 3220 271 
Q 2806 -91 2034 -91 
Q 1263 -91 848 271 
Q 434 634 434 1313 
Q 434 1759 690 2068 
Q 947 2378 1403 2484 
z
M 1172 3481 
Q 1172 3119 1398 2916 
Q 1625 2713 2034 2713 
Q 2441 2713 2670 2916 
Q 2900 3119 2900 3481 
Q 2900 3844 2670 4047 
Q 2441 4250 2034 4250 
Q 1625 4250 1398 4047 
Q 1172 3844 1172 3481 
z
" id="DejaVuSans-38" transform="scale(0.015625)"/>
       </defs>
       <use xlink:href="#DejaVuSans-38"/>
       <use x="63.623047" xlink:href="#DejaVuSans-30"/>
       <use x="127.246094" xlink:href="#DejaVuSans-30"/>
      </g>
     </g>
    </g>
    <g id="text_6">
     <!-- # of passenger delivered -->
     <g transform="translate(173.125625 335.860562)scale(0.1 -0.1)">
      <defs>
       <path d="M 3272 2816 
L 2363 2816 
L 2100 1772 
L 3016 1772 
L 3272 2816 
z
M 2803 4594 
L 2478 3297 
L 3391 3297 
L 3719 4594 
L 4219 4594 
L 3897 3297 
L 4872 3297 
L 4872 2816 
L 3775 2816 
L 3519 1772 
L 4513 1772 
L 4513 1294 
L 3397 1294 
L 3072 0 
L 2572 0 
L 2894 1294 
L 1978 1294 
L 1656 0 
L 1153 0 
L 1478 1294 
L 494 1294 
L 494 1772 
L 1594 1772 
L 1856 2816 
L 850 2816 
L 850 3297 
L 1978 3297 
L 2297 4594 
L 2803 4594 
z
" id="DejaVuSans-23" transform="scale(0.015625)"/>
       <path id="DejaVuSans-20" transform="scale(0.015625)"/>
       <path d="M 1959 3097 
Q 1497 3097 1228 2736 
Q 959 2375 959 1747 
Q 959 1119 1226 758 
Q 1494 397 1959 397 
Q 2419 397 2687 759 
Q 2956 1122 2956 1747 
Q 2956 2369 2687 2733 
Q 2419 3097 1959 3097 
z
M 1959 3584 
Q 2709 3584 3137 3096 
Q 3566 2609 3566 1747 
Q 3566 888 3137 398 
Q 2709 -91 1959 -91 
Q 1206 -91 779 398 
Q 353 888 353 1747 
Q 353 2609 779 3096 
Q 1206 3584 1959 3584 
z
" id="DejaVuSans-6f" transform="scale(0.015625)"/>
       <path d="M 2375 4863 
L 2375 4384 
L 1825 4384 
Q 1516 4384 1395 4259 
Q 1275 4134 1275 3809 
L 1275 3500 
L 2222 3500 
L 2222 3053 
L 1275 3053 
L 1275 0 
L 697 0 
L 697 3053 
L 147 3053 
L 147 3500 
L 697 3500 
L 697 3744 
Q 697 4328 969 4595 
Q 1241 4863 1831 4863 
L 2375 4863 
z
" id="DejaVuSans-66" transform="scale(0.015625)"/>
       <path d="M 1159 525 
L 1159 -1331 
L 581 -1331 
L 581 3500 
L 1159 3500 
L 1159 2969 
Q 1341 3281 1617 3432 
Q 1894 3584 2278 3584 
Q 2916 3584 3314 3078 
Q 3713 2572 3713 1747 
Q 3713 922 3314 415 
Q 2916 -91 2278 -91 
Q 1894 -91 1617 61 
Q 1341 213 1159 525 
z
M 3116 1747 
Q 3116 2381 2855 2742 
Q 2594 3103 2138 3103 
Q 1681 3103 1420 2742 
Q 1159 2381 1159 1747 
Q 1159 1113 1420 752 
Q 1681 391 2138 391 
Q 2594 391 2855 752 
Q 3116 1113 3116 1747 
z
" id="DejaVuSans-70" transform="scale(0.015625)"/>
       <path d="M 2194 1759 
Q 1497 1759 1228 1600 
Q 959 1441 959 1056 
Q 959 750 1161 570 
Q 1363 391 1709 391 
Q 2188 391 2477 730 
Q 2766 1069 2766 1631 
L 2766 1759 
L 2194 1759 
z
M 3341 1997 
L 3341 0 
L 2766 0 
L 2766 531 
Q 2569 213 2275 61 
Q 1981 -91 1556 -91 
Q 1019 -91 701 211 
Q 384 513 384 1019 
Q 384 1609 779 1909 
Q 1175 2209 1959 2209 
L 2766 2209 
L 2766 2266 
Q 2766 2663 2505 2880 
Q 2244 3097 1772 3097 
Q 1472 3097 1187 3025 
Q 903 2953 641 2809 
L 641 3341 
Q 956 3463 1253 3523 
Q 1550 3584 1831 3584 
Q 2591 3584 2966 3190 
Q 3341 2797 3341 1997 
z
" id="DejaVuSans-61" transform="scale(0.015625)"/>
       <path d="M 2834 3397 
L 2834 2853 
Q 2591 2978 2328 3040 
Q 2066 3103 1784 3103 
Q 1356 3103 1142 2972 
Q 928 2841 928 2578 
Q 928 2378 1081 2264 
Q 1234 2150 1697 2047 
L 1894 2003 
Q 2506 1872 2764 1633 
Q 3022 1394 3022 966 
Q 3022 478 2636 193 
Q 2250 -91 1575 -91 
Q 1294 -91 989 -36 
Q 684 19 347 128 
L 347 722 
Q 666 556 975 473 
Q 1284 391 1588 391 
Q 1994 391 2212 530 
Q 2431 669 2431 922 
Q 2431 1156 2273 1281 
Q 2116 1406 1581 1522 
L 1381 1569 
Q 847 1681 609 1914 
Q 372 2147 372 2553 
Q 372 3047 722 3315 
Q 1072 3584 1716 3584 
Q 2034 3584 2315 3537 
Q 2597 3491 2834 3397 
z
" id="DejaVuSans-73" transform="scale(0.015625)"/>
       <path d="M 3597 1894 
L 3597 1613 
L 953 1613 
Q 991 1019 1311 708 
Q 1631 397 2203 397 
Q 2534 397 2845 478 
Q 3156 559 3463 722 
L 3463 178 
Q 3153 47 2828 -22 
Q 2503 -91 2169 -91 
Q 1331 -91 842 396 
Q 353 884 353 1716 
Q 353 2575 817 3079 
Q 1281 3584 2069 3584 
Q 2775 3584 3186 3129 
Q 3597 2675 3597 1894 
z
M 3022 2063 
Q 3016 2534 2758 2815 
Q 2500 3097 2075 3097 
Q 1594 3097 1305 2825 
Q 1016 2553 972 2059 
L 3022 2063 
z
" id="DejaVuSans-65" transform="scale(0.015625)"/>
       <path d="M 3513 2113 
L 3513 0 
L 2938 0 
L 2938 2094 
Q 2938 2591 2744 2837 
Q 2550 3084 2163 3084 
Q 1697 3084 1428 2787 
Q 1159 2491 1159 1978 
L 1159 0 
L 581 0 
L 581 3500 
L 1159 3500 
L 1159 2956 
Q 1366 3272 1645 3428 
Q 1925 3584 2291 3584 
Q 2894 3584 3203 3211 
Q 3513 2838 3513 2113 
z
" id="DejaVuSans-6e" transform="scale(0.015625)"/>
       <path d="M 2906 1791 
Q 2906 2416 2648 2759 
Q 2391 3103 1925 3103 
Q 1463 3103 1205 2759 
Q 947 2416 947 1791 
Q 947 1169 1205 825 
Q 1463 481 1925 481 
Q 2391 481 2648 825 
Q 2906 1169 2906 1791 
z
M 3481 434 
Q 3481 -459 3084 -895 
Q 2688 -1331 1869 -1331 
Q 1566 -1331 1297 -1286 
Q 1028 -1241 775 -1147 
L 775 -588 
Q 1028 -725 1275 -790 
Q 1522 -856 1778 -856 
Q 2344 -856 2625 -561 
Q 2906 -266 2906 331 
L 2906 616 
Q 2728 306 2450 153 
Q 2172 0 1784 0 
Q 1141 0 747 490 
Q 353 981 353 1791 
Q 353 2603 747 3093 
Q 1141 3584 1784 3584 
Q 2172 3584 2450 3431 
Q 2728 3278 2906 2969 
L 2906 3500 
L 3481 3500 
L 3481 434 
z
" id="DejaVuSans-67" transform="scale(0.015625)"/>
       <path d="M 2631 2963 
Q 2534 3019 2420 3045 
Q 2306 3072 2169 3072 
Q 1681 3072 1420 2755 
Q 1159 2438 1159 1844 
L 1159 0 
L 581 0 
L 581 3500 
L 1159 3500 
L 1159 2956 
Q 1341 3275 1631 3429 
Q 1922 3584 2338 3584 
Q 2397 3584 2469 3576 
Q 2541 3569 2628 3553 
L 2631 2963 
z
" id="DejaVuSans-72" transform="scale(0.015625)"/>
       <path d="M 2906 2969 
L 2906 4863 
L 3481 4863 
L 3481 0 
L 2906 0 
L 2906 525 
Q 2725 213 2448 61 
Q 2172 -91 1784 -91 
Q 1150 -91 751 415 
Q 353 922 353 1747 
Q 353 2572 751 3078 
Q 1150 3584 1784 3584 
Q 2172 3584 2448 3432 
Q 2725 3281 2906 2969 
z
M 947 1747 
Q 947 1113 1208 752 
Q 1469 391 1925 391 
Q 2381 391 2643 752 
Q 2906 1113 2906 1747 
Q 2906 2381 2643 2742 
Q 2381 3103 1925 3103 
Q 1469 3103 1208 2742 
Q 947 2381 947 1747 
z
" id="DejaVuSans-64" transform="scale(0.015625)"/>
       <path d="M 603 4863 
L 1178 4863 
L 1178 0 
L 603 0 
L 603 4863 
z
" id="DejaVuSans-6c" transform="scale(0.015625)"/>
       <path d="M 603 3500 
L 1178 3500 
L 1178 0 
L 603 0 
L 603 3500 
z
M 603 4863 
L 1178 4863 
L 1178 4134 
L 603 4134 
L 603 4863 
z
" id="DejaVuSans-69" transform="scale(0.015625)"/>
       <path d="M 191 3500 
L 800 3500 
L 1894 563 
L 2988 3500 
L 3597 3500 
L 2284 0 
L 1503 0 
L 191 3500 
z
" id="DejaVuSans-76" transform="scale(0.015625)"/>
      </defs>
      <use xlink:href="#DejaVuSans-23"/>
      <use x="83.789062" xlink:href="#DejaVuSans-20"/>
      <use x="115.576172" xlink:href="#DejaVuSans-6f"/>
      <use x="176.757812" xlink:href="#DejaVuSans-66"/>
      <use x="211.962891" xlink:href="#DejaVuSans-20"/>
      <use x="243.75" xlink:href="#DejaVuSans-70"/>
      <use x="307.226562" xlink:href="#DejaVuSans-61"/>
      <use x="368.505859" xlink:href="#DejaVuSans-73"/>
      <use x="420.605469" xlink:href="#DejaVuSans-73"/>
      <use x="472.705078" xlink:href="#DejaVuSans-65"/>
      <use x="534.228516" xlink:href="#DejaVuSans-6e"/>
      <use x="597.607422" xlink:href="#DejaVuSans-67"/>
      <use x="661.083984" xlink:href="#DejaVuSans-65"/>
      <use x="722.607422" xlink:href="#DejaVuSans-72"/>
      <use x="763.720703" xlink:href="#DejaVuSans-20"/>
      <use x="795.507812" xlink:href="#DejaVuSans-64"/>
      <use x="858.984375" xlink:href="#DejaVuSans-65"/>
      <use x="920.507812" xlink:href="#DejaVuSans-6c"/>
      <use x="948.291016" xlink:href="#DejaVuSans-69"/>
      <use x="976.074219" xlink:href="#DejaVuSans-76"/>
      <use x="1035.253906" xlink:href="#DejaVuSans-65"/>
      <use x="1096.777344" xlink:href="#DejaVuSans-72"/>
      <use x="1135.640625" xlink:href="#DejaVuSans-65"/>
      <use x="1197.164062" xlink:href="#DejaVuSans-64"/>
     </g>
    </g>
   </g>
   <g id="matplotlib.axis_2">
    <g id="ytick_1">
     <g id="line2d_11">
      <path clip-path="url(#p10783569c0)" d="M 57.6 295.488 
L 414.72 295.488 
" style="fill:none;stroke:#b0b0b0;stroke-linecap:square;stroke-width:0.8;"/>
     </g>
     <g id="line2d_12">
      <defs>
       <path d="M 0 0 
L -3.5 0 
" id="mf0607472d8" style="stroke:#000000;stroke-width:0.8;"/>
      </defs>
      <g>
       <use style="stroke:#000000;stroke-width:0.8;" x="57.6" xlink:href="#mf0607472d8" y="295.488"/>
      </g>
     </g>
     <g id="text_7">
      <!-- 0 -->
      <g transform="translate(44.2375 299.287219)scale(0.1 -0.1)">
       <use xlink:href="#DejaVuSans-30"/>
      </g>
     </g>
    </g>
    <g id="ytick_2">
     <g id="line2d_13">
      <path clip-path="url(#p10783569c0)" d="M 57.6 263.712267 
L 414.72 263.712267 
" style="fill:none;stroke:#b0b0b0;stroke-linecap:square;stroke-width:0.8;"/>
     </g>
     <g id="line2d_14">
      <g>
       <use style="stroke:#000000;stroke-width:0.8;" x="57.6" xlink:href="#mf0607472d8" y="263.712267"/>
      </g>
     </g>
     <g id="text_8">
      <!-- 500 -->
      <g transform="translate(31.5125 267.511485)scale(0.1 -0.1)">
       <defs>
        <path d="M 691 4666 
L 3169 4666 
L 3169 4134 
L 1269 4134 
L 1269 2991 
Q 1406 3038 1543 3061 
Q 1681 3084 1819 3084 
Q 2600 3084 3056 2656 
Q 3513 2228 3513 1497 
Q 3513 744 3044 326 
Q 2575 -91 1722 -91 
Q 1428 -91 1123 -41 
Q 819 9 494 109 
L 494 744 
Q 775 591 1075 516 
Q 1375 441 1709 441 
Q 2250 441 2565 725 
Q 2881 1009 2881 1497 
Q 2881 1984 2565 2268 
Q 2250 2553 1709 2553 
Q 1456 2553 1204 2497 
Q 953 2441 691 2322 
L 691 4666 
z
" id="DejaVuSans-35" transform="scale(0.015625)"/>
       </defs>
       <use xlink:href="#DejaVuSans-35"/>
       <use x="63.623047" xlink:href="#DejaVuSans-30"/>
       <use x="127.246094" xlink:href="#DejaVuSans-30"/>
      </g>
     </g>
    </g>
    <g id="ytick_3">
     <g id="line2d_15">
      <path clip-path="url(#p10783569c0)" d="M 57.6 231.936533 
L 414.72 231.936533 
" style="fill:none;stroke:#b0b0b0;stroke-linecap:square;stroke-width:0.8;"/>
     </g>
     <g id="line2d_16">
      <g>
       <use style="stroke:#000000;stroke-width:0.8;" x="57.6" xlink:href="#mf0607472d8" y="231.936533"/>
      </g>
     </g>
     <g id="text_9">
      <!-- 1000 -->
      <g transform="translate(25.15 235.735752)scale(0.1 -0.1)">
       <defs>
        <path d="M 794 531 
L 1825 531 
L 1825 4091 
L 703 3866 
L 703 4441 
L 1819 4666 
L 2450 4666 
L 2450 531 
L 3481 531 
L 3481 0 
L 794 0 
L 794 531 
z
" id="DejaVuSans-31" transform="scale(0.015625)"/>
       </defs>
       <use xlink:href="#DejaVuSans-31"/>
       <use x="63.623047" xlink:href="#DejaVuSans-30"/>
       <use x="127.246094" xlink:href="#DejaVuSans-30"/>
       <use x="190.869141" xlink:href="#DejaVuSans-30"/>
      </g>
     </g>
    </g>
    <g id="ytick_4">
     <g id="line2d_17">
      <path clip-path="url(#p10783569c0)" d="M 57.6 200.1608 
L 414.72 200.1608 
" style="fill:none;stroke:#b0b0b0;stroke-linecap:square;stroke-width:0.8;"/>
     </g>
     <g id="line2d_18">
      <g>
       <use style="stroke:#000000;stroke-width:0.8;" x="57.6" xlink:href="#mf0607472d8" y="200.1608"/>
      </g>
     </g>
     <g id="text_10">
      <!-- 1500 -->
      <g transform="translate(25.15 203.960019)scale(0.1 -0.1)">
       <use xlink:href="#DejaVuSans-31"/>
       <use x="63.623047" xlink:href="#DejaVuSans-35"/>
       <use x="127.246094" xlink:href="#DejaVuSans-30"/>
       <use x="190.869141" xlink:href="#DejaVuSans-30"/>
      </g>
     </g>
    </g>
    <g id="ytick_5">
     <g id="line2d_19">
      <path clip-path="url(#p10783569c0)" d="M 57.6 168.385067 
L 414.72 168.385067 
" style="fill:none;stroke:#b0b0b0;stroke-linecap:square;stroke-width:0.8;"/>
     </g>
     <g id="line2d_20">
      <g>
       <use style="stroke:#000000;stroke-width:0.8;" x="57.6" xlink:href="#mf0607472d8" y="168.385067"/>
      </g>
     </g>
     <g id="text_11">
      <!-- 2000 -->
      <g transform="translate(25.15 172.184286)scale(0.1 -0.1)">
       <use xlink:href="#DejaVuSans-32"/>
       <use x="63.623047" xlink:href="#DejaVuSans-30"/>
       <use x="127.246094" xlink:href="#DejaVuSans-30"/>
       <use x="190.869141" xlink:href="#DejaVuSans-30"/>
      </g>
     </g>
    </g>
    <g id="ytick_6">
     <g id="line2d_21">
      <path clip-path="url(#p10783569c0)" d="M 57.6 136.609334 
L 414.72 136.609334 
" style="fill:none;stroke:#b0b0b0;stroke-linecap:square;stroke-width:0.8;"/>
     </g>
     <g id="line2d_22">
      <g>
       <use style="stroke:#000000;stroke-width:0.8;" x="57.6" xlink:href="#mf0607472d8" y="136.609334"/>
      </g>
     </g>
     <g id="text_12">
      <!-- 2500 -->
      <g transform="translate(25.15 140.408552)scale(0.1 -0.1)">
       <use xlink:href="#DejaVuSans-32"/>
       <use x="63.623047" xlink:href="#DejaVuSans-35"/>
       <use x="127.246094" xlink:href="#DejaVuSans-30"/>
       <use x="190.869141" xlink:href="#DejaVuSans-30"/>
      </g>
     </g>
    </g>
    <g id="ytick_7">
     <g id="line2d_23">
      <path clip-path="url(#p10783569c0)" d="M 57.6 104.8336 
L 414.72 104.8336 
" style="fill:none;stroke:#b0b0b0;stroke-linecap:square;stroke-width:0.8;"/>
     </g>
     <g id="line2d_24">
      <g>
       <use style="stroke:#000000;stroke-width:0.8;" x="57.6" xlink:href="#mf0607472d8" y="104.8336"/>
      </g>
     </g>
     <g id="text_13">
      <!-- 3000 -->
      <g transform="translate(25.15 108.632819)scale(0.1 -0.1)">
       <defs>
        <path d="M 2597 2516 
Q 3050 2419 3304 2112 
Q 3559 1806 3559 1356 
Q 3559 666 3084 287 
Q 2609 -91 1734 -91 
Q 1441 -91 1130 -33 
Q 819 25 488 141 
L 488 750 
Q 750 597 1062 519 
Q 1375 441 1716 441 
Q 2309 441 2620 675 
Q 2931 909 2931 1356 
Q 2931 1769 2642 2001 
Q 2353 2234 1838 2234 
L 1294 2234 
L 1294 2753 
L 1863 2753 
Q 2328 2753 2575 2939 
Q 2822 3125 2822 3475 
Q 2822 3834 2567 4026 
Q 2313 4219 1838 4219 
Q 1578 4219 1281 4162 
Q 984 4106 628 3988 
L 628 4550 
Q 988 4650 1302 4700 
Q 1616 4750 1894 4750 
Q 2613 4750 3031 4423 
Q 3450 4097 3450 3541 
Q 3450 3153 3228 2886 
Q 3006 2619 2597 2516 
z
" id="DejaVuSans-33" transform="scale(0.015625)"/>
       </defs>
       <use xlink:href="#DejaVuSans-33"/>
       <use x="63.623047" xlink:href="#DejaVuSans-30"/>
       <use x="127.246094" xlink:href="#DejaVuSans-30"/>
       <use x="190.869141" xlink:href="#DejaVuSans-30"/>
      </g>
     </g>
    </g>
    <g id="ytick_8">
     <g id="line2d_25">
      <path clip-path="url(#p10783569c0)" d="M 57.6 73.057867 
L 414.72 73.057867 
" style="fill:none;stroke:#b0b0b0;stroke-linecap:square;stroke-width:0.8;"/>
     </g>
     <g id="line2d_26">
      <g>
       <use style="stroke:#000000;stroke-width:0.8;" x="57.6" xlink:href="#mf0607472d8" y="73.057867"/>
      </g>
     </g>
     <g id="text_14">
      <!-- 3500 -->
      <g transform="translate(25.15 76.857086)scale(0.1 -0.1)">
       <use xlink:href="#DejaVuSans-33"/>
       <use x="63.623047" xlink:href="#DejaVuSans-35"/>
       <use x="127.246094" xlink:href="#DejaVuSans-30"/>
       <use x="190.869141" xlink:href="#DejaVuSans-30"/>
      </g>
     </g>
    </g>
    <g id="text_15">
     <!-- frames -->
     <g transform="translate(19.070312 191.95925)rotate(-90)scale(0.1 -0.1)">
      <defs>
       <path d="M 3328 2828 
Q 3544 3216 3844 3400 
Q 4144 3584 4550 3584 
Q 5097 3584 5394 3201 
Q 5691 2819 5691 2113 
L 5691 0 
L 5113 0 
L 5113 2094 
Q 5113 2597 4934 2840 
Q 4756 3084 4391 3084 
Q 3944 3084 3684 2787 
Q 3425 2491 3425 1978 
L 3425 0 
L 2847 0 
L 2847 2094 
Q 2847 2600 2669 2842 
Q 2491 3084 2119 3084 
Q 1678 3084 1418 2786 
Q 1159 2488 1159 1978 
L 1159 0 
L 581 0 
L 581 3500 
L 1159 3500 
L 1159 2956 
Q 1356 3278 1631 3431 
Q 1906 3584 2284 3584 
Q 2666 3584 2933 3390 
Q 3200 3197 3328 2828 
z
" id="DejaVuSans-6d" transform="scale(0.015625)"/>
      </defs>
      <use xlink:href="#DejaVuSans-66"/>
      <use x="35.205078" xlink:href="#DejaVuSans-72"/>
      <use x="76.318359" xlink:href="#DejaVuSans-61"/>
      <use x="137.597656" xlink:href="#DejaVuSans-6d"/>
      <use x="235.009766" xlink:href="#DejaVuSans-65"/>
      <use x="296.533203" xlink:href="#DejaVuSans-73"/>
     </g>
    </g>
   </g>
   <g id="line2d_27">
    <path clip-path="url(#p10783569c0)" d="M 73.832727 295.488 
L 74.222469 274.897325 
L 74.61221 271.868038 
L 75.001951 277.773029 
L 75.781434 283.063688 
L 76.171175 284.83859 
L 76.950658 287.0639 
L 77.340399 287.90631 
L 77.730141 283.881191 
L 78.509623 271.69042 
L 78.899365 270.957134 
L 79.289106 271.834144 
L 79.678848 269.956198 
L 80.068589 269.144048 
L 80.848072 262.611823 
L 81.237813 261.348152 
L 81.627554 261.512175 
L 82.407037 264.298045 
L 83.18652 259.922057 
L 83.966002 258.654041 
L 84.745485 260.335273 
L 85.524968 258.351393 
L 85.914709 258.304434 
L 86.304451 256.810192 
L 86.694192 256.687961 
L 87.083933 256.843261 
L 87.473675 256.774565 
L 87.863416 257.075433 
L 88.253157 257.651464 
L 88.642899 256.649906 
L 89.03264 256.737493 
L 90.201864 256.625539 
L 90.981347 257.530827 
L 91.371088 258.355983 
L 91.760829 257.332781 
L 92.930053 255.956446 
L 93.319795 255.927835 
L 94.099278 254.807867 
L 94.489019 254.593808 
L 94.87876 254.849726 
L 95.268502 255.278079 
L 96.437726 252.730789 
L 96.827467 252.805776 
L 97.60695 254.129321 
L 97.996691 253.255529 
L 98.386432 253.18159 
L 98.776174 252.547741 
L 99.165915 252.809339 
L 99.555656 252.237907 
L 99.945398 252.694499 
L 100.335139 252.533656 
L 100.72488 252.977516 
L 101.504363 252.748756 
L 102.673587 252.866997 
L 103.063329 253.237145 
L 103.45307 252.483465 
L 103.842811 252.384625 
L 104.232553 252.049366 
L 104.622294 252.327816 
L 105.401777 252.028872 
L 105.791518 252.552476 
L 106.571001 252.491321 
L 106.960742 252.82058 
L 107.350483 252.159048 
L 107.740225 251.938635 
L 108.519708 251.330323 
L 108.909449 251.129775 
L 109.29919 251.27414 
L 110.078673 252.123589 
L 110.858156 250.596171 
L 111.637638 251.417003 
L 112.02738 251.082857 
L 112.417121 251.401712 
L 113.586345 249.292254 
L 113.976086 248.778894 
L 114.365828 248.599728 
L 115.535052 249.484976 
L 116.314535 249.515447 
L 117.094017 250.181479 
L 117.483759 249.6224 
L 118.263241 249.783443 
L 119.042724 248.082951 
L 119.822207 247.067123 
L 120.601689 247.309686 
L 122.550396 248.83618 
L 123.329879 246.444638 
L 123.71962 245.545415 
L 124.499103 244.591037 
L 124.888844 244.281887 
L 126.837551 244.177845 
L 127.227292 244.487488 
L 128.396516 242.357171 
L 129.175999 241.599023 
L 129.955482 241.724774 
L 130.345223 242.093015 
L 130.734965 240.916312 
L 131.904189 239.020404 
L 132.683671 238.081375 
L 133.852895 237.039921 
L 134.632378 237.618925 
L 135.022119 236.331238 
L 135.801602 235.882682 
L 136.191343 235.838436 
L 136.581085 235.94106 
L 136.970826 236.306379 
L 137.750309 233.674377 
L 138.14005 232.708722 
L 138.919533 231.484486 
L 139.309274 231.497314 
L 140.088757 232.101173 
L 140.86824 230.948363 
L 141.647722 231.262525 
L 142.427205 231.894884 
L 143.206688 230.021824 
L 143.98617 228.431723 
L 145.155395 226.90008 
L 146.71436 225.436368 
L 147.104101 225.179567 
L 147.883584 225.146176 
L 148.663067 223.873729 
L 149.052808 223.411137 
L 149.832291 223.513046 
L 150.222032 222.719958 
L 150.611773 222.815935 
L 151.001515 222.23264 
L 151.391256 222.431141 
L 151.780997 221.960218 
L 152.170739 222.210642 
L 152.950222 221.823751 
L 153.729704 221.74547 
L 154.119446 221.253747 
L 154.898928 220.798911 
L 155.28867 220.85346 
L 156.068152 221.450841 
L 156.457894 221.798434 
L 156.847635 221.124469 
L 157.237376 220.725759 
L 157.627118 220.564646 
L 158.4066 220.555574 
L 159.186083 219.875332 
L 159.575825 219.734077 
L 160.355307 219.745766 
L 161.13479 220.046478 
L 161.524531 220.300429 
L 163.083497 217.023215 
L 165.811686 213.04834 
L 166.591169 212.492976 
L 168.150134 212.587596 
L 169.319358 213.508417 
L 170.488582 212.887683 
L 170.878324 212.781105 
L 172.437289 213.111788 
L 173.216772 213.430148 
L 173.996255 214.021671 
L 175.165479 212.204899 
L 176.724444 210.308411 
L 177.114185 210.024418 
L 177.503927 210.101011 
L 179.062892 211.162239 
L 181.011599 206.666076 
L 181.791082 205.22 
L 182.180823 205.152438 
L 182.570564 204.800057 
L 182.960306 204.862252 
L 183.350047 204.588444 
L 183.739788 204.693165 
L 184.12953 204.670717 
L 184.909012 205.173811 
L 186.467978 206.391693 
L 187.637202 203.762195 
L 188.026943 203.374689 
L 188.416684 202.380147 
L 188.806426 202.04158 
L 189.196167 201.235398 
L 189.585909 201.17016 
L 189.97565 200.448376 
L 190.365391 200.519442 
L 190.755133 199.806517 
L 191.144874 199.903648 
L 191.534615 199.204172 
L 191.924357 199.313935 
L 192.314098 198.666611 
L 192.703839 198.927154 
L 193.093581 198.396057 
L 193.483322 198.661563 
L 193.873063 198.231016 
L 194.262805 198.544748 
L 194.652546 198.207461 
L 195.042287 198.519258 
L 195.432029 198.244104 
L 195.82177 198.552179 
L 196.211512 198.645451 
L 196.601253 198.938239 
L 196.990994 199.045542 
L 198.160218 199.806302 
L 198.54996 199.241977 
L 198.939701 199.528443 
L 199.329442 199.301577 
L 199.719184 199.598448 
L 200.888408 199.173129 
L 201.66789 199.04102 
L 202.447373 199.23268 
L 204.006339 200.311806 
L 204.785821 200.79028 
L 205.565304 199.982519 
L 206.734528 199.967544 
L 207.903752 200.496426 
L 209.072976 198.700577 
L 209.462717 198.585853 
L 209.852459 198.07141 
L 210.2422 197.969633 
L 210.631942 197.591479 
L 211.021683 197.479396 
L 211.411424 197.151441 
L 211.801166 197.056445 
L 212.190907 196.81328 
L 214.919096 196.274182 
L 216.08832 196.355005 
L 217.257544 196.628613 
L 218.037027 197.051746 
L 219.206251 195.552299 
L 219.985734 194.880282 
L 220.765217 194.417799 
L 221.544699 194.150169 
L 222.713923 194.122747 
L 224.272889 195.132845 
L 224.66263 194.698486 
L 225.442113 194.54008 
L 226.221596 194.560814 
L 227.001078 194.895706 
L 227.39082 194.650325 
L 228.170302 194.450133 
L 229.339526 194.754318 
L 230.898492 195.7144 
L 231.677974 194.904343 
L 232.457457 194.523411 
L 233.626681 194.387049 
L 234.406164 194.635516 
L 234.795905 194.811732 
L 235.965129 193.831867 
L 237.134353 193.524817 
L 237.913836 193.562291 
L 239.472801 194.006005 
L 239.862543 193.457534 
L 240.252284 193.571493 
L 240.642026 193.132512 
L 241.031767 193.236351 
L 241.421508 192.827315 
L 241.81125 193.017439 
L 242.200991 192.814808 
L 242.590732 193.026196 
L 242.980474 192.83149 
L 243.370215 193.039975 
L 243.759956 192.836966 
L 244.149698 193.071329 
L 244.539439 192.972825 
L 244.92918 193.205814 
L 245.318922 193.155584 
L 245.708663 193.387105 
L 246.098404 193.401965 
L 246.488146 193.626164 
L 247.267629 193.858661 
L 248.047111 194.190792 
L 248.436853 193.78697 
L 250.385559 193.334757 
L 251.165042 193.331526 
L 252.334266 193.793469 
L 253.50349 194.419709 
L 254.282973 193.625408 
L 255.062456 193.301333 
L 255.841938 193.215901 
L 257.790645 193.612984 
L 258.570128 193.89971 
L 258.959869 194.104853 
L 260.129093 192.855035 
L 262.0778 191.620218 
L 262.467541 191.497622 
L 263.247024 191.701539 
L 264.026507 191.995282 
L 265.195731 190.953717 
L 266.754696 190.008966 
L 267.144437 189.8092 
L 267.92392 190.156093 
L 268.703403 189.390032 
L 269.093144 189.338948 
L 269.482886 189.07985 
L 269.872627 189.071195 
L 270.262368 188.87104 
L 271.821334 189.021314 
L 272.211075 189.166023 
L 272.600816 189.184057 
L 272.990558 189.365367 
L 273.77004 189.464371 
L 274.159782 189.571892 
L 275.329006 188.912927 
L 275.718747 188.7197 
L 276.887971 188.718858 
L 277.667454 188.863436 
L 278.057195 188.977195 
L 278.836678 188.62024 
L 279.616161 188.470694 
L 280.395643 188.524299 
L 281.564867 188.081142 
L 283.513574 187.807055 
L 283.903316 187.784505 
L 285.07254 188.351229 
L 285.852022 187.988887 
L 287.021246 187.701814 
L 288.580212 187.667756 
L 289.359694 187.909248 
L 290.528918 187.207254 
L 292.477625 186.691395 
L 292.867367 186.676601 
L 293.646849 186.951319 
L 294.816073 186.432788 
L 295.595556 186.223295 
L 295.985297 186.269963 
L 297.154521 185.439557 
L 299.49297 184.222421 
L 301.051935 183.843199 
L 301.831418 183.715936 
L 302.221159 183.461164 
L 302.6109 183.418123 
L 303.000642 183.195688 
L 303.390383 183.368456 
L 303.780124 183.144277 
L 304.169866 183.334047 
L 304.559607 183.288904 
L 304.949348 183.477791 
L 305.33909 183.439608 
L 306.508314 183.890775 
L 309.236503 181.932139 
L 310.015986 181.641358 
L 311.18521 181.580539 
L 312.354434 181.658615 
L 314.303141 182.310551 
L 315.472365 182.853925 
L 317.03133 182.049852 
L 317.810813 181.843788 
L 318.590296 181.980332 
L 320.539003 182.581402 
L 320.928744 182.734688 
L 322.487709 181.276765 
L 323.656933 180.539532 
L 324.826157 180.225149 
L 325.60564 180.383427 
L 327.944088 181.423628 
L 328.723571 180.713469 
L 330.282536 180.021254 
L 331.062019 179.951626 
L 331.841502 180.044988 
L 332.620984 180.339528 
L 333.790208 179.327716 
L 335.349174 178.471403 
L 335.738915 178.329219 
L 336.908139 178.354938 
L 337.687622 178.525931 
L 338.077363 178.698188 
L 339.246587 178.023458 
L 340.415811 177.771201 
L 341.585035 177.82911 
L 341.974777 177.991761 
L 342.75426 177.592764 
L 343.533742 177.471184 
L 343.923484 177.614498 
L 344.313225 177.347561 
L 344.702966 177.497946 
L 345.482449 177.040085 
L 347.041414 176.523276 
L 348.60038 176.345203 
L 349.379862 176.451077 
L 350.549087 175.872699 
L 351.718311 175.521434 
L 353.277276 175.248625 
L 354.4465 175.402524 
L 355.615724 175.756423 
L 357.17469 176.367061 
L 359.123396 175.012887 
L 360.29262 174.795389 
L 361.072103 174.820643 
L 362.241327 175.229328 
L 363.410551 174.355146 
L 363.800292 174.33084 
L 364.190034 173.996423 
L 364.579775 173.984402 
L 364.969517 173.777086 
L 366.138741 173.748692 
L 366.528482 173.693558 
L 367.697706 173.829281 
L 368.86693 173.893923 
L 370.036154 174.272806 
L 371.205378 174.623176 
L 371.59512 174.756496 
L 372.764344 173.971886 
L 373.933568 174.11253 
L 376.661757 175.187606 
L 378.220722 174.026844 
L 379.000205 173.615255 
L 379.779688 173.403935 
L 380.948912 173.386543 
L 381.728395 173.64136 
L 382.897619 173.068666 
L 383.677101 172.956541 
L 384.846325 173.101636 
L 386.015549 173.506982 
L 387.574515 172.719182 
L 389.13348 172.296464 
L 390.302704 172.499731 
L 391.471928 172.932346 
L 392.641152 172.384076 
L 393.810377 172.041286 
L 394.200118 171.997385 
L 396.538566 172.821864 
L 397.70779 172.310974 
L 398.487273 172.011615 
L 398.487273 172.011615 
" style="fill:none;stroke:#1f77b4;stroke-linecap:square;stroke-width:1.5;"/>
   </g>
   <g id="line2d_28">
    <path clip-path="url(#p10783569c0)" d="M 73.832727 267.779561 
L 74.222469 244.074864 
L 74.61221 236.596974 
L 75.001951 208.867351 
L 75.391693 192.483783 
L 75.781434 183.25611 
L 76.171175 185.217127 
L 76.560917 183.804242 
L 77.340399 192.363035 
L 77.730141 186.277694 
L 78.509623 189.459711 
L 78.899365 191.812861 
L 79.289106 186.975989 
L 80.068589 190.80752 
L 80.848072 183.991969 
L 81.627554 179.146449 
L 82.407037 175.757037 
L 83.18652 177.27973 
L 83.966002 171.93218 
L 84.745485 167.808721 
L 85.524968 167.866405 
L 85.914709 168.234132 
L 86.304451 166.921457 
L 86.694192 167.46544 
L 87.083933 166.414972 
L 87.473675 166.978108 
L 88.253157 165.169028 
L 88.642899 165.961964 
L 89.03264 167.198243 
L 90.201864 163.204883 
L 90.981347 164.997068 
L 91.371088 164.574742 
L 92.150571 162.139811 
L 93.319795 159.16512 
L 95.268502 161.072109 
L 96.827467 165.515718 
L 97.60695 166.957209 
L 97.996691 166.23037 
L 98.386432 167.05843 
L 98.776174 166.371952 
L 99.165915 167.260399 
L 99.555656 167.462148 
L 99.945398 168.327123 
L 100.335139 168.656773 
L 100.72488 169.498126 
L 101.504363 170.275723 
L 101.894105 170.736471 
L 102.673587 169.956059 
L 103.063329 169.814139 
L 103.45307 168.895955 
L 103.842811 169.418186 
L 104.232553 168.601464 
L 104.622294 169.130208 
L 105.401777 167.720102 
L 105.791518 167.604839 
L 106.571001 166.552542 
L 106.960742 166.119383 
L 107.350483 166.384292 
L 107.740225 166.811446 
L 108.909449 166.046233 
L 109.688932 165.728889 
L 111.247897 167.554967 
L 111.637638 167.918807 
L 112.417121 166.981215 
L 113.586345 167.4102 
L 114.755569 168.09309 
L 115.535052 168.864645 
L 117.094017 166.81387 
L 118.263241 160.932967 
L 119.822207 156.757819 
L 121.381172 153.643193 
L 122.160655 150.958746 
L 122.550396 150.369235 
L 123.71962 150.379311 
L 124.888844 151.193432 
L 127.227292 153.291133 
L 128.786258 147.16559 
L 130.345223 142.080854 
L 131.514447 140.190395 
L 133.073413 137.980052 
L 133.852895 137.083305 
L 134.632378 136.586666 
L 135.411861 136.958267 
L 136.581085 137.7105 
L 137.360567 136.932904 
L 138.919533 135.303502 
L 140.088757 134.519568 
L 140.86824 134.974261 
L 142.037464 136.306381 
L 142.427205 135.941146 
L 144.765653 132.014528 
L 147.104101 128.865806 
L 147.883584 127.91343 
L 149.052808 127.40944 
L 149.832291 127.244895 
L 150.222032 127.515022 
L 150.611773 127.454071 
L 151.001515 127.749493 
L 151.391256 127.694334 
L 151.780997 127.991945 
L 152.170739 127.942424 
L 153.729704 129.336084 
L 154.898928 127.502621 
L 156.457894 125.482158 
L 158.016859 121.022824 
L 158.4066 119.994707 
L 159.575825 117.970062 
L 160.745049 116.352871 
L 161.524531 115.473128 
L 163.083497 115.091636 
L 164.252721 115.002108 
L 165.811686 115.151731 
L 167.370652 115.549274 
L 168.539876 115.999906 
L 169.319358 116.442335 
L 171.268065 111.245209 
L 173.216772 106.604353 
L 173.606513 105.765359 
L 173.996255 105.918902 
L 175.55522 102.115199 
L 176.724444 99.613747 
L 177.893668 97.547709 
L 179.062892 95.652876 
L 180.232116 94.677659 
L 180.621857 94.934593 
L 181.011599 94.640037 
L 181.40134 94.981288 
L 181.791082 94.693255 
L 182.180823 95.117287 
L 182.570564 94.851481 
L 182.960306 95.276455 
L 183.350047 95.032477 
L 183.739788 95.474244 
L 184.519271 95.082576 
L 184.909012 94.53493 
L 186.467978 93.977914 
L 187.24746 92.474581 
L 187.637202 92.256049 
L 188.026943 91.575554 
L 188.416684 91.381155 
L 188.806426 90.727751 
L 189.196167 90.541796 
L 189.585909 89.915 
L 189.97565 89.737258 
L 190.365391 89.1366 
L 190.755133 88.966847 
L 191.144874 88.376927 
L 191.534615 88.214997 
L 191.924357 87.635612 
L 192.314098 87.496135 
L 192.703839 86.941786 
L 193.093581 86.809618 
L 193.483322 86.265224 
L 193.873063 86.140214 
L 194.262805 86.227986 
L 194.652546 86.107987 
L 195.042287 86.270054 
L 195.432029 86.154748 
L 195.82177 86.350041 
L 196.211512 86.267897 
L 196.601253 86.465618 
L 196.990994 86.401871 
L 197.380736 86.601924 
L 197.770477 86.542134 
L 198.160218 85.973114 
L 198.54996 86.072059 
L 198.939701 85.583822 
L 200.888408 86.347315 
L 202.447373 87.030934 
L 203.226856 86.720669 
L 203.616597 86.945195 
L 204.006339 86.912277 
L 204.785821 86.583581 
L 206.344787 84.428175 
L 207.903752 82.656349 
L 209.072976 81.895173 
L 209.462717 82.186516 
L 209.852459 81.964333 
L 210.2422 82.25744 
L 210.631942 82.065565 
L 211.021683 82.360326 
L 211.411424 82.172835 
L 211.801166 82.481923 
L 212.190907 82.324064 
L 212.580648 82.634557 
L 212.97039 82.518515 
L 213.360131 82.830277 
L 213.749872 82.717867 
L 214.139614 83.03087 
L 214.529355 82.922038 
L 214.919096 83.248686 
L 215.308838 83.180533 
L 215.698579 83.520528 
L 216.08832 83.455478 
L 216.478062 83.796333 
L 216.867803 83.734341 
L 217.257544 84.076038 
L 218.037027 83.973988 
L 219.985734 81.469986 
L 221.934441 79.328279 
L 223.103665 78.2484 
L 224.272889 78.677985 
L 225.831854 76.991557 
L 227.001078 76.040754 
L 228.170302 75.615133 
L 229.339526 75.393701 
L 229.729268 75.401981 
L 230.119009 75.190635 
L 230.898492 75.263292 
L 232.457457 75.946811 
L 234.016423 76.885455 
L 234.795905 77.448138 
L 237.134353 74.104499 
L 239.472801 71.184889 
L 239.862543 70.944744 
L 240.252284 70.495763 
L 240.642026 70.271824 
L 241.031767 69.829453 
L 241.421508 69.611048 
L 241.81125 69.175196 
L 242.200991 68.983088 
L 242.590732 68.55362 
L 242.980474 68.366746 
L 243.370215 67.953927 
L 243.759956 67.772188 
L 244.149698 67.818354 
L 244.539439 67.650926 
L 244.92918 67.7168 
L 245.318922 67.563475 
L 245.708663 67.245209 
L 246.098404 67.116881 
L 246.488146 66.803916 
L 248.047111 66.379005 
L 249.995818 66.886641 
L 251.554783 67.459219 
L 253.50349 68.559606 
L 255.452197 67.788131 
L 258.570128 67.247256 
L 259.34961 67.282544 
L 261.688058 67.956382 
L 264.026507 68.965621 
L 265.975213 67.864014 
L 267.534179 67.243929 
L 268.313661 67.122669 
L 268.703403 67.110414 
L 269.093144 67.417358 
L 269.482886 67.416064 
L 269.872627 67.723705 
L 270.262368 67.733261 
L 270.65211 68.050489 
L 271.041851 68.079669 
L 271.431592 68.40635 
L 271.821334 68.454943 
L 272.211075 68.7821 
L 272.600816 68.832254 
L 272.990558 69.159878 
L 274.159782 69.365589 
L 276.108488 68.486684 
L 277.667454 67.973629 
L 278.446937 67.868757 
L 280.395643 67.920611 
L 282.34435 68.698545 
L 284.293057 69.721004 
L 285.07254 69.581263 
L 286.631505 68.495058 
L 288.580212 67.423776 
L 289.749436 66.96414 
L 290.91866 66.838935 
L 292.867367 66.905453 
L 294.036591 67.236957 
L 295.985297 68.303194 
L 298.713487 65.444885 
L 301.051935 63.292161 
L 301.831418 62.650501 
L 302.221159 62.483315 
L 302.6109 62.168194 
L 303.000642 62.004552 
L 303.780124 61.5486 
L 305.728831 61.125759 
L 306.898055 60.922083 
L 309.626245 61.063629 
L 311.964693 61.476132 
L 313.9134 62.014229 
L 314.692882 62.220648 
L 315.082624 62.035275 
L 315.472365 62.141956 
L 317.421072 61.291608 
L 318.590296 60.934086 
L 320.539003 60.54715 
L 321.318485 60.534531 
L 324.046675 60.965792 
L 325.995381 61.53985 
L 327.164605 61.208594 
L 328.723571 60.829595 
L 331.062019 60.393243 
L 332.620984 60.244458 
L 335.738915 60.808393 
L 337.687622 61.43048 
L 338.077363 61.271363 
L 340.02607 59.921203 
L 341.974777 58.774283 
L 343.144001 58.482173 
L 343.923484 58.408522 
L 344.313225 58.528905 
L 344.702966 58.517547 
L 347.431156 59.483617 
L 349.379862 60.335097 
L 352.108052 58.689814 
L 354.836241 57.250188 
L 356.395207 56.523806 
L 357.17469 56.717196 
L 359.513138 55.233672 
L 361.461844 54.324632 
L 362.631068 53.926049 
L 363.02081 53.851981 
L 363.410551 53.957918 
L 363.800292 53.891769 
L 364.190034 54.005121 
L 364.579775 53.940786 
L 364.969517 54.079598 
L 365.359258 54.017033 
L 365.748999 54.175117 
L 366.138741 54.114284 
L 366.528482 54.273507 
L 366.918223 54.226378 
L 367.307965 54.386716 
L 367.697706 54.341245 
L 368.86693 54.865044 
L 369.256671 54.695764 
L 369.646413 54.878719 
L 370.036154 54.728739 
L 370.425895 54.912839 
L 370.815637 54.896974 
L 371.59512 55.274173 
L 373.543826 54.249852 
L 373.933568 54.080789 
L 375.102792 54.516111 
L 376.272016 54.068656 
L 376.661757 54.224333 
L 379.779688 53.666827 
L 381.728395 53.574562 
L 383.28736 53.913687 
L 386.015549 54.693871 
L 388.743739 54.515843 
L 390.692446 54.562517 
L 391.86167 54.704795 
L 393.810377 55.244283 
L 396.538566 56.08288 
L 398.487273 55.863081 
L 398.487273 55.863081 
" style="fill:none;stroke:#ff7f0e;stroke-linecap:square;stroke-width:1.5;"/>
   </g>
   <g id="patch_3">
    <path d="M 57.6 307.584 
L 57.6 41.472 
" style="fill:none;stroke:#000000;stroke-linecap:square;stroke-linejoin:miter;stroke-width:0.8;"/>
   </g>
   <g id="patch_4">
    <path d="M 414.72 307.584 
L 414.72 41.472 
" style="fill:none;stroke:#000000;stroke-linecap:square;stroke-linejoin:miter;stroke-width:0.8;"/>
   </g>
   <g id="patch_5">
    <path d="M 57.6 307.584 
L 414.72 307.584 
" style="fill:none;stroke:#000000;stroke-linecap:square;stroke-linejoin:miter;stroke-width:0.8;"/>
   </g>
   <g id="patch_6">
    <path d="M 57.6 41.472 
L 414.72 41.472 
" style="fill:none;stroke:#000000;stroke-linecap:square;stroke-linejoin:miter;stroke-width:0.8;"/>
   </g>
   <g id="text_16">
    <!-- strategyhx -->
    <g transform="translate(203.780625 35.472)scale(0.12 -0.12)">
     <defs>
      <path d="M 1172 4494 
L 1172 3500 
L 2356 3500 
L 2356 3053 
L 1172 3053 
L 1172 1153 
Q 1172 725 1289 603 
Q 1406 481 1766 481 
L 2356 481 
L 2356 0 
L 1766 0 
Q 1100 0 847 248 
Q 594 497 594 1153 
L 594 3053 
L 172 3053 
L 172 3500 
L 594 3500 
L 594 4494 
L 1172 4494 
z
" id="DejaVuSans-74" transform="scale(0.015625)"/>
      <path d="M 2059 -325 
Q 1816 -950 1584 -1140 
Q 1353 -1331 966 -1331 
L 506 -1331 
L 506 -850 
L 844 -850 
Q 1081 -850 1212 -737 
Q 1344 -625 1503 -206 
L 1606 56 
L 191 3500 
L 800 3500 
L 1894 763 
L 2988 3500 
L 3597 3500 
L 2059 -325 
z
" id="DejaVuSans-79" transform="scale(0.015625)"/>
      <path d="M 3513 2113 
L 3513 0 
L 2938 0 
L 2938 2094 
Q 2938 2591 2744 2837 
Q 2550 3084 2163 3084 
Q 1697 3084 1428 2787 
Q 1159 2491 1159 1978 
L 1159 0 
L 581 0 
L 581 4863 
L 1159 4863 
L 1159 2956 
Q 1366 3272 1645 3428 
Q 1925 3584 2291 3584 
Q 2894 3584 3203 3211 
Q 3513 2838 3513 2113 
z
" id="DejaVuSans-68" transform="scale(0.015625)"/>
      <path d="M 3513 3500 
L 2247 1797 
L 3578 0 
L 2900 0 
L 1881 1375 
L 863 0 
L 184 0 
L 1544 1831 
L 300 3500 
L 978 3500 
L 1906 2253 
L 2834 3500 
L 3513 3500 
z
" id="DejaVuSans-78" transform="scale(0.015625)"/>
     </defs>
     <use xlink:href="#DejaVuSans-73"/>
     <use x="52.099609" xlink:href="#DejaVuSans-74"/>
     <use x="91.308594" xlink:href="#DejaVuSans-72"/>
     <use x="132.421875" xlink:href="#DejaVuSans-61"/>
     <use x="193.701172" xlink:href="#DejaVuSans-74"/>
     <use x="232.910156" xlink:href="#DejaVuSans-65"/>
     <use x="294.433594" xlink:href="#DejaVuSans-67"/>
     <use x="357.910156" xlink:href="#DejaVuSans-79"/>
     <use x="417.089844" xlink:href="#DejaVuSans-68"/>
     <use x="480.46875" xlink:href="#DejaVuSans-78"/>
    </g>
   </g>
   <g id="legend_1">
    <g id="patch_7">
     <path d="M 63.1712 62.76096 
L 352.947763 62.76096 
Q 354.947763 62.76096 354.947763 60.76096 
L 354.947763 47.082835 
Q 354.947763 45.082835 352.947763 45.082835 
L 63.1712 45.082835 
Q 61.1712 45.082835 61.1712 47.082835 
L 61.1712 60.76096 
Q 61.1712 62.76096 63.1712 62.76096 
z
" style="fill:#ffffff;opacity:0.8;stroke:#cccccc;stroke-linejoin:miter;"/>
    </g>
    <g id="line2d_29">
     <path d="M 65.1712 53.181273 
L 85.1712 53.181273 
" style="fill:none;stroke:#1f77b4;stroke-linecap:square;stroke-width:1.5;"/>
    </g>
    <g id="line2d_30"/>
    <g id="text_17">
     <!-- average waiting time -->
     <g transform="translate(93.1712 56.681273)scale(0.1 -0.1)">
      <defs>
       <path d="M 269 3500 
L 844 3500 
L 1563 769 
L 2278 3500 
L 2956 3500 
L 3675 769 
L 4391 3500 
L 4966 3500 
L 4050 0 
L 3372 0 
L 2619 2869 
L 1863 0 
L 1184 0 
L 269 3500 
z
" id="DejaVuSans-77" transform="scale(0.015625)"/>
      </defs>
      <use xlink:href="#DejaVuSans-61"/>
      <use x="61.279297" xlink:href="#DejaVuSans-76"/>
      <use x="120.458984" xlink:href="#DejaVuSans-65"/>
      <use x="181.982422" xlink:href="#DejaVuSans-72"/>
      <use x="223.095703" xlink:href="#DejaVuSans-61"/>
      <use x="284.375" xlink:href="#DejaVuSans-67"/>
      <use x="347.851562" xlink:href="#DejaVuSans-65"/>
      <use x="409.375" xlink:href="#DejaVuSans-20"/>
      <use x="441.162109" xlink:href="#DejaVuSans-77"/>
      <use x="522.949219" xlink:href="#DejaVuSans-61"/>
      <use x="584.228516" xlink:href="#DejaVuSans-69"/>
      <use x="612.011719" xlink:href="#DejaVuSans-74"/>
      <use x="651.220703" xlink:href="#DejaVuSans-69"/>
      <use x="679.003906" xlink:href="#DejaVuSans-6e"/>
      <use x="742.382812" xlink:href="#DejaVuSans-67"/>
      <use x="805.859375" xlink:href="#DejaVuSans-20"/>
      <use x="837.646484" xlink:href="#DejaVuSans-74"/>
      <use x="876.855469" xlink:href="#DejaVuSans-69"/>
      <use x="904.638672" xlink:href="#DejaVuSans-6d"/>
      <use x="1002.050781" xlink:href="#DejaVuSans-65"/>
     </g>
    </g>
    <g id="line2d_31">
     <path d="M 219.529013 53.181273 
L 239.529013 53.181273 
" style="fill:none;stroke:#ff7f0e;stroke-linecap:square;stroke-width:1.5;"/>
    </g>
    <g id="line2d_32"/>
    <g id="text_18">
     <!-- average on bus time -->
     <g transform="translate(247.529013 56.681273)scale(0.1 -0.1)">
      <defs>
       <path d="M 3116 1747 
Q 3116 2381 2855 2742 
Q 2594 3103 2138 3103 
Q 1681 3103 1420 2742 
Q 1159 2381 1159 1747 
Q 1159 1113 1420 752 
Q 1681 391 2138 391 
Q 2594 391 2855 752 
Q 3116 1113 3116 1747 
z
M 1159 2969 
Q 1341 3281 1617 3432 
Q 1894 3584 2278 3584 
Q 2916 3584 3314 3078 
Q 3713 2572 3713 1747 
Q 3713 922 3314 415 
Q 2916 -91 2278 -91 
Q 1894 -91 1617 61 
Q 1341 213 1159 525 
L 1159 0 
L 581 0 
L 581 4863 
L 1159 4863 
L 1159 2969 
z
" id="DejaVuSans-62" transform="scale(0.015625)"/>
       <path d="M 544 1381 
L 544 3500 
L 1119 3500 
L 1119 1403 
Q 1119 906 1312 657 
Q 1506 409 1894 409 
Q 2359 409 2629 706 
Q 2900 1003 2900 1516 
L 2900 3500 
L 3475 3500 
L 3475 0 
L 2900 0 
L 2900 538 
Q 2691 219 2414 64 
Q 2138 -91 1772 -91 
Q 1169 -91 856 284 
Q 544 659 544 1381 
z
M 1991 3584 
L 1991 3584 
z
" id="DejaVuSans-75" transform="scale(0.015625)"/>
      </defs>
      <use xlink:href="#DejaVuSans-61"/>
      <use x="61.279297" xlink:href="#DejaVuSans-76"/>
      <use x="120.458984" xlink:href="#DejaVuSans-65"/>
      <use x="181.982422" xlink:href="#DejaVuSans-72"/>
      <use x="223.095703" xlink:href="#DejaVuSans-61"/>
      <use x="284.375" xlink:href="#DejaVuSans-67"/>
      <use x="347.851562" xlink:href="#DejaVuSans-65"/>
      <use x="409.375" xlink:href="#DejaVuSans-20"/>
      <use x="441.162109" xlink:href="#DejaVuSans-6f"/>
      <use x="502.34375" xlink:href="#DejaVuSans-6e"/>
      <use x="565.722656" xlink:href="#DejaVuSans-20"/>
      <use x="597.509766" xlink:href="#DejaVuSans-62"/>
      <use x="660.986328" xlink:href="#DejaVuSans-75"/>
      <use x="724.365234" xlink:href="#DejaVuSans-73"/>
      <use x="776.464844" xlink:href="#DejaVuSans-20"/>
      <use x="808.251953" xlink:href="#DejaVuSans-74"/>
      <use x="847.460938" xlink:href="#DejaVuSans-69"/>
      <use x="875.244141" xlink:href="#DejaVuSans-6d"/>
      <use x="972.65625" xlink:href="#DejaVuSans-65"/>
     </g>
    </g>
   </g>
  </g>
 </g>
 <defs>
  <clipPath id="p10783569c0">
   <rect height="266.112" width="357.12" x="57.6" y="41.472"/>
  </clipPath>
 </defs>
</svg>
