<?xml version="1.0" encoding="utf-8" standalone="no"?>
<!DOCTYPE svg PUBLIC "-//W3C//DTD SVG 1.1//EN"
  "http://www.w3.org/Graphics/SVG/1.1/DTD/svg11.dtd">
<svg height="345.6pt" version="1.1" viewBox="0 0 460.8 345.6" width="460.8pt" xmlns="http://www.w3.org/2000/svg" xmlns:xlink="http://www.w3.org/1999/xlink">
 <metadata>
  <rdf:RDF xmlns:cc="http://creativecommons.org/ns#" xmlns:dc="http://purl.org/dc/elements/1.1/" xmlns:rdf="http://www.w3.org/1999/02/22-rdf-syntax-ns#">
   <cc:Work>
    <dc:type rdf:resource="http://purl.org/dc/dcmitype/StillImage"/>
    <dc:date>2021-08-28T09:34:00.485079</dc:date>
    <dc:format>image/svg+xml</dc:format>
    <dc:creator>
     <cc:Agent>
      <dc:title>Matplotlib v3.4.2, https://matplotlib.org/</dc:title>
     </cc:Agent>
    </dc:creator>
   </cc:Work>
  </rdf:RDF>
 </metadata>
 <defs>
  <style type="text/css">*{stroke-linecap:butt;stroke-linejoin:round;}</style>
 </defs>
 <g id="figure_1">
  <g id="patch_1">
   <path d="M 0 345.6 
L 460.8 345.6 
L 460.8 0 
L 0 0 
z
" style="fill:#ffffff;"/>
  </g>
  <g id="axes_1">
   <g id="patch_2">
    <path d="M 57.6 307.584 
L 414.72 307.584 
L 414.72 41.472 
L 57.6 41.472 
z
" style="fill:#ffffff;"/>
   </g>
   <g id="matplotlib.axis_1">
    <g id="xtick_1">
     <g id="line2d_1">
      <path clip-path="url(#p9ea21df44f)" d="M 73.466713 307.584 
L 73.466713 41.472 
" style="fill:none;stroke:#b0b0b0;stroke-linecap:square;stroke-width:0.8;"/>
     </g>
     <g id="line2d_2">
      <defs>
       <path d="M 0 0 
L 0 3.5 
" id="mb24017e20a" style="stroke:#000000;stroke-width:0.8;"/>
      </defs>
      <g>
       <use style="stroke:#000000;stroke-width:0.8;" x="73.466713" xlink:href="#mb24017e20a" y="307.584"/>
      </g>
     </g>
     <g id="text_1">
      <!-- 0 -->
      <g transform="translate(70.285463 322.182437)scale(0.1 -0.1)">
       <defs>
        <path d="M 2034 4250 
Q 1547 4250 1301 3770 
Q 1056 3291 1056 2328 
Q 1056 1369 1301 889 
Q 1547 409 2034 409 
Q 2525 409 2770 889 
Q 3016 1369 3016 2328 
Q 3016 3291 2770 3770 
Q 2525 4250 2034 4250 
z
M 2034 4750 
Q 2819 4750 3233 4129 
Q 3647 3509 3647 2328 
Q 3647 1150 3233 529 
Q 2819 -91 2034 -91 
Q 1250 -91 836 529 
Q 422 1150 422 2328 
Q 422 3509 836 4129 
Q 1250 4750 2034 4750 
z
" id="DejaVuSans-30" transform="scale(0.015625)"/>
       </defs>
       <use xlink:href="#DejaVuSans-30"/>
      </g>
     </g>
    </g>
    <g id="xtick_2">
     <g id="line2d_3">
      <path clip-path="url(#p9ea21df44f)" d="M 146.669542 307.584 
L 146.669542 41.472 
" style="fill:none;stroke:#b0b0b0;stroke-linecap:square;stroke-width:0.8;"/>
     </g>
     <g id="line2d_4">
      <g>
       <use style="stroke:#000000;stroke-width:0.8;" x="146.669542" xlink:href="#mb24017e20a" y="307.584"/>
      </g>
     </g>
     <g id="text_2">
      <!-- 200 -->
      <g transform="translate(137.125792 322.182437)scale(0.1 -0.1)">
       <defs>
        <path d="M 1228 531 
L 3431 531 
L 3431 0 
L 469 0 
L 469 531 
Q 828 903 1448 1529 
Q 2069 2156 2228 2338 
Q 2531 2678 2651 2914 
Q 2772 3150 2772 3378 
Q 2772 3750 2511 3984 
Q 2250 4219 1831 4219 
Q 1534 4219 1204 4116 
Q 875 4013 500 3803 
L 500 4441 
Q 881 4594 1212 4672 
Q 1544 4750 1819 4750 
Q 2544 4750 2975 4387 
Q 3406 4025 3406 3419 
Q 3406 3131 3298 2873 
Q 3191 2616 2906 2266 
Q 2828 2175 2409 1742 
Q 1991 1309 1228 531 
z
" id="DejaVuSans-32" transform="scale(0.015625)"/>
       </defs>
       <use xlink:href="#DejaVuSans-32"/>
       <use x="63.623047" xlink:href="#DejaVuSans-30"/>
       <use x="127.246094" xlink:href="#DejaVuSans-30"/>
      </g>
     </g>
    </g>
    <g id="xtick_3">
     <g id="line2d_5">
      <path clip-path="url(#p9ea21df44f)" d="M 219.872371 307.584 
L 219.872371 41.472 
" style="fill:none;stroke:#b0b0b0;stroke-linecap:square;stroke-width:0.8;"/>
     </g>
     <g id="line2d_6">
      <g>
       <use style="stroke:#000000;stroke-width:0.8;" x="219.872371" xlink:href="#mb24017e20a" y="307.584"/>
      </g>
     </g>
     <g id="text_3">
      <!-- 400 -->
      <g transform="translate(210.328621 322.182437)scale(0.1 -0.1)">
       <defs>
        <path d="M 2419 4116 
L 825 1625 
L 2419 1625 
L 2419 4116 
z
M 2253 4666 
L 3047 4666 
L 3047 1625 
L 3713 1625 
L 3713 1100 
L 3047 1100 
L 3047 0 
L 2419 0 
L 2419 1100 
L 313 1100 
L 313 1709 
L 2253 4666 
z
" id="DejaVuSans-34" transform="scale(0.015625)"/>
       </defs>
       <use xlink:href="#DejaVuSans-34"/>
       <use x="63.623047" xlink:href="#DejaVuSans-30"/>
       <use x="127.246094" xlink:href="#DejaVuSans-30"/>
      </g>
     </g>
    </g>
    <g id="xtick_4">
     <g id="line2d_7">
      <path clip-path="url(#p9ea21df44f)" d="M 293.075199 307.584 
L 293.075199 41.472 
" style="fill:none;stroke:#b0b0b0;stroke-linecap:square;stroke-width:0.8;"/>
     </g>
     <g id="line2d_8">
      <g>
       <use style="stroke:#000000;stroke-width:0.8;" x="293.075199" xlink:href="#mb24017e20a" y="307.584"/>
      </g>
     </g>
     <g id="text_4">
      <!-- 600 -->
      <g transform="translate(283.531449 322.182437)scale(0.1 -0.1)">
       <defs>
        <path d="M 2113 2584 
Q 1688 2584 1439 2293 
Q 1191 2003 1191 1497 
Q 1191 994 1439 701 
Q 1688 409 2113 409 
Q 2538 409 2786 701 
Q 3034 994 3034 1497 
Q 3034 2003 2786 2293 
Q 2538 2584 2113 2584 
z
M 3366 4563 
L 3366 3988 
Q 3128 4100 2886 4159 
Q 2644 4219 2406 4219 
Q 1781 4219 1451 3797 
Q 1122 3375 1075 2522 
Q 1259 2794 1537 2939 
Q 1816 3084 2150 3084 
Q 2853 3084 3261 2657 
Q 3669 2231 3669 1497 
Q 3669 778 3244 343 
Q 2819 -91 2113 -91 
Q 1303 -91 875 529 
Q 447 1150 447 2328 
Q 447 3434 972 4092 
Q 1497 4750 2381 4750 
Q 2619 4750 2861 4703 
Q 3103 4656 3366 4563 
z
" id="DejaVuSans-36" transform="scale(0.015625)"/>
       </defs>
       <use xlink:href="#DejaVuSans-36"/>
       <use x="63.623047" xlink:href="#DejaVuSans-30"/>
       <use x="127.246094" xlink:href="#DejaVuSans-30"/>
      </g>
     </g>
    </g>
    <g id="xtick_5">
     <g id="line2d_9">
      <path clip-path="url(#p9ea21df44f)" d="M 366.278028 307.584 
L 366.278028 41.472 
" style="fill:none;stroke:#b0b0b0;stroke-linecap:square;stroke-width:0.8;"/>
     </g>
     <g id="line2d_10">
      <g>
       <use style="stroke:#000000;stroke-width:0.8;" x="366.278028" xlink:href="#mb24017e20a" y="307.584"/>
      </g>
     </g>
     <g id="text_5">
      <!-- 800 -->
      <g transform="translate(356.734278 322.182437)scale(0.1 -0.1)">
       <defs>
        <path d="M 2034 2216 
Q 1584 2216 1326 1975 
Q 1069 1734 1069 1313 
Q 1069 891 1326 650 
Q 1584 409 2034 409 
Q 2484 409 2743 651 
Q 3003 894 3003 1313 
Q 3003 1734 2745 1975 
Q 2488 2216 2034 2216 
z
M 1403 2484 
Q 997 2584 770 2862 
Q 544 3141 544 3541 
Q 544 4100 942 4425 
Q 1341 4750 2034 4750 
Q 2731 4750 3128 4425 
Q 3525 4100 3525 3541 
Q 3525 3141 3298 2862 
Q 3072 2584 2669 2484 
Q 3125 2378 3379 2068 
Q 3634 1759 3634 1313 
Q 3634 634 3220 271 
Q 2806 -91 2034 -91 
Q 1263 -91 848 271 
Q 434 634 434 1313 
Q 434 1759 690 2068 
Q 947 2378 1403 2484 
z
M 1172 3481 
Q 1172 3119 1398 2916 
Q 1625 2713 2034 2713 
Q 2441 2713 2670 2916 
Q 2900 3119 2900 3481 
Q 2900 3844 2670 4047 
Q 2441 4250 2034 4250 
Q 1625 4250 1398 4047 
Q 1172 3844 1172 3481 
z
" id="DejaVuSans-38" transform="scale(0.015625)"/>
       </defs>
       <use xlink:href="#DejaVuSans-38"/>
       <use x="63.623047" xlink:href="#DejaVuSans-30"/>
       <use x="127.246094" xlink:href="#DejaVuSans-30"/>
      </g>
     </g>
    </g>
    <g id="text_6">
     <!-- # of passenger delivered -->
     <g transform="translate(173.125625 335.860562)scale(0.1 -0.1)">
      <defs>
       <path d="M 3272 2816 
L 2363 2816 
L 2100 1772 
L 3016 1772 
L 3272 2816 
z
M 2803 4594 
L 2478 3297 
L 3391 3297 
L 3719 4594 
L 4219 4594 
L 3897 3297 
L 4872 3297 
L 4872 2816 
L 3775 2816 
L 3519 1772 
L 4513 1772 
L 4513 1294 
L 3397 1294 
L 3072 0 
L 2572 0 
L 2894 1294 
L 1978 1294 
L 1656 0 
L 1153 0 
L 1478 1294 
L 494 1294 
L 494 1772 
L 1594 1772 
L 1856 2816 
L 850 2816 
L 850 3297 
L 1978 3297 
L 2297 4594 
L 2803 4594 
z
" id="DejaVuSans-23" transform="scale(0.015625)"/>
       <path id="DejaVuSans-20" transform="scale(0.015625)"/>
       <path d="M 1959 3097 
Q 1497 3097 1228 2736 
Q 959 2375 959 1747 
Q 959 1119 1226 758 
Q 1494 397 1959 397 
Q 2419 397 2687 759 
Q 2956 1122 2956 1747 
Q 2956 2369 2687 2733 
Q 2419 3097 1959 3097 
z
M 1959 3584 
Q 2709 3584 3137 3096 
Q 3566 2609 3566 1747 
Q 3566 888 3137 398 
Q 2709 -91 1959 -91 
Q 1206 -91 779 398 
Q 353 888 353 1747 
Q 353 2609 779 3096 
Q 1206 3584 1959 3584 
z
" id="DejaVuSans-6f" transform="scale(0.015625)"/>
       <path d="M 2375 4863 
L 2375 4384 
L 1825 4384 
Q 1516 4384 1395 4259 
Q 1275 4134 1275 3809 
L 1275 3500 
L 2222 3500 
L 2222 3053 
L 1275 3053 
L 1275 0 
L 697 0 
L 697 3053 
L 147 3053 
L 147 3500 
L 697 3500 
L 697 3744 
Q 697 4328 969 4595 
Q 1241 4863 1831 4863 
L 2375 4863 
z
" id="DejaVuSans-66" transform="scale(0.015625)"/>
       <path d="M 1159 525 
L 1159 -1331 
L 581 -1331 
L 581 3500 
L 1159 3500 
L 1159 2969 
Q 1341 3281 1617 3432 
Q 1894 3584 2278 3584 
Q 2916 3584 3314 3078 
Q 3713 2572 3713 1747 
Q 3713 922 3314 415 
Q 2916 -91 2278 -91 
Q 1894 -91 1617 61 
Q 1341 213 1159 525 
z
M 3116 1747 
Q 3116 2381 2855 2742 
Q 2594 3103 2138 3103 
Q 1681 3103 1420 2742 
Q 1159 2381 1159 1747 
Q 1159 1113 1420 752 
Q 1681 391 2138 391 
Q 2594 391 2855 752 
Q 3116 1113 3116 1747 
z
" id="DejaVuSans-70" transform="scale(0.015625)"/>
       <path d="M 2194 1759 
Q 1497 1759 1228 1600 
Q 959 1441 959 1056 
Q 959 750 1161 570 
Q 1363 391 1709 391 
Q 2188 391 2477 730 
Q 2766 1069 2766 1631 
L 2766 1759 
L 2194 1759 
z
M 3341 1997 
L 3341 0 
L 2766 0 
L 2766 531 
Q 2569 213 2275 61 
Q 1981 -91 1556 -91 
Q 1019 -91 701 211 
Q 384 513 384 1019 
Q 384 1609 779 1909 
Q 1175 2209 1959 2209 
L 2766 2209 
L 2766 2266 
Q 2766 2663 2505 2880 
Q 2244 3097 1772 3097 
Q 1472 3097 1187 3025 
Q 903 2953 641 2809 
L 641 3341 
Q 956 3463 1253 3523 
Q 1550 3584 1831 3584 
Q 2591 3584 2966 3190 
Q 3341 2797 3341 1997 
z
" id="DejaVuSans-61" transform="scale(0.015625)"/>
       <path d="M 2834 3397 
L 2834 2853 
Q 2591 2978 2328 3040 
Q 2066 3103 1784 3103 
Q 1356 3103 1142 2972 
Q 928 2841 928 2578 
Q 928 2378 1081 2264 
Q 1234 2150 1697 2047 
L 1894 2003 
Q 2506 1872 2764 1633 
Q 3022 1394 3022 966 
Q 3022 478 2636 193 
Q 2250 -91 1575 -91 
Q 1294 -91 989 -36 
Q 684 19 347 128 
L 347 722 
Q 666 556 975 473 
Q 1284 391 1588 391 
Q 1994 391 2212 530 
Q 2431 669 2431 922 
Q 2431 1156 2273 1281 
Q 2116 1406 1581 1522 
L 1381 1569 
Q 847 1681 609 1914 
Q 372 2147 372 2553 
Q 372 3047 722 3315 
Q 1072 3584 1716 3584 
Q 2034 3584 2315 3537 
Q 2597 3491 2834 3397 
z
" id="DejaVuSans-73" transform="scale(0.015625)"/>
       <path d="M 3597 1894 
L 3597 1613 
L 953 1613 
Q 991 1019 1311 708 
Q 1631 397 2203 397 
Q 2534 397 2845 478 
Q 3156 559 3463 722 
L 3463 178 
Q 3153 47 2828 -22 
Q 2503 -91 2169 -91 
Q 1331 -91 842 396 
Q 353 884 353 1716 
Q 353 2575 817 3079 
Q 1281 3584 2069 3584 
Q 2775 3584 3186 3129 
Q 3597 2675 3597 1894 
z
M 3022 2063 
Q 3016 2534 2758 2815 
Q 2500 3097 2075 3097 
Q 1594 3097 1305 2825 
Q 1016 2553 972 2059 
L 3022 2063 
z
" id="DejaVuSans-65" transform="scale(0.015625)"/>
       <path d="M 3513 2113 
L 3513 0 
L 2938 0 
L 2938 2094 
Q 2938 2591 2744 2837 
Q 2550 3084 2163 3084 
Q 1697 3084 1428 2787 
Q 1159 2491 1159 1978 
L 1159 0 
L 581 0 
L 581 3500 
L 1159 3500 
L 1159 2956 
Q 1366 3272 1645 3428 
Q 1925 3584 2291 3584 
Q 2894 3584 3203 3211 
Q 3513 2838 3513 2113 
z
" id="DejaVuSans-6e" transform="scale(0.015625)"/>
       <path d="M 2906 1791 
Q 2906 2416 2648 2759 
Q 2391 3103 1925 3103 
Q 1463 3103 1205 2759 
Q 947 2416 947 1791 
Q 947 1169 1205 825 
Q 1463 481 1925 481 
Q 2391 481 2648 825 
Q 2906 1169 2906 1791 
z
M 3481 434 
Q 3481 -459 3084 -895 
Q 2688 -1331 1869 -1331 
Q 1566 -1331 1297 -1286 
Q 1028 -1241 775 -1147 
L 775 -588 
Q 1028 -725 1275 -790 
Q 1522 -856 1778 -856 
Q 2344 -856 2625 -561 
Q 2906 -266 2906 331 
L 2906 616 
Q 2728 306 2450 153 
Q 2172 0 1784 0 
Q 1141 0 747 490 
Q 353 981 353 1791 
Q 353 2603 747 3093 
Q 1141 3584 1784 3584 
Q 2172 3584 2450 3431 
Q 2728 3278 2906 2969 
L 2906 3500 
L 3481 3500 
L 3481 434 
z
" id="DejaVuSans-67" transform="scale(0.015625)"/>
       <path d="M 2631 2963 
Q 2534 3019 2420 3045 
Q 2306 3072 2169 3072 
Q 1681 3072 1420 2755 
Q 1159 2438 1159 1844 
L 1159 0 
L 581 0 
L 581 3500 
L 1159 3500 
L 1159 2956 
Q 1341 3275 1631 3429 
Q 1922 3584 2338 3584 
Q 2397 3584 2469 3576 
Q 2541 3569 2628 3553 
L 2631 2963 
z
" id="DejaVuSans-72" transform="scale(0.015625)"/>
       <path d="M 2906 2969 
L 2906 4863 
L 3481 4863 
L 3481 0 
L 2906 0 
L 2906 525 
Q 2725 213 2448 61 
Q 2172 -91 1784 -91 
Q 1150 -91 751 415 
Q 353 922 353 1747 
Q 353 2572 751 3078 
Q 1150 3584 1784 3584 
Q 2172 3584 2448 3432 
Q 2725 3281 2906 2969 
z
M 947 1747 
Q 947 1113 1208 752 
Q 1469 391 1925 391 
Q 2381 391 2643 752 
Q 2906 1113 2906 1747 
Q 2906 2381 2643 2742 
Q 2381 3103 1925 3103 
Q 1469 3103 1208 2742 
Q 947 2381 947 1747 
z
" id="DejaVuSans-64" transform="scale(0.015625)"/>
       <path d="M 603 4863 
L 1178 4863 
L 1178 0 
L 603 0 
L 603 4863 
z
" id="DejaVuSans-6c" transform="scale(0.015625)"/>
       <path d="M 603 3500 
L 1178 3500 
L 1178 0 
L 603 0 
L 603 3500 
z
M 603 4863 
L 1178 4863 
L 1178 4134 
L 603 4134 
L 603 4863 
z
" id="DejaVuSans-69" transform="scale(0.015625)"/>
       <path d="M 191 3500 
L 800 3500 
L 1894 563 
L 2988 3500 
L 3597 3500 
L 2284 0 
L 1503 0 
L 191 3500 
z
" id="DejaVuSans-76" transform="scale(0.015625)"/>
      </defs>
      <use xlink:href="#DejaVuSans-23"/>
      <use x="83.789062" xlink:href="#DejaVuSans-20"/>
      <use x="115.576172" xlink:href="#DejaVuSans-6f"/>
      <use x="176.757812" xlink:href="#DejaVuSans-66"/>
      <use x="211.962891" xlink:href="#DejaVuSans-20"/>
      <use x="243.75" xlink:href="#DejaVuSans-70"/>
      <use x="307.226562" xlink:href="#DejaVuSans-61"/>
      <use x="368.505859" xlink:href="#DejaVuSans-73"/>
      <use x="420.605469" xlink:href="#DejaVuSans-73"/>
      <use x="472.705078" xlink:href="#DejaVuSans-65"/>
      <use x="534.228516" xlink:href="#DejaVuSans-6e"/>
      <use x="597.607422" xlink:href="#DejaVuSans-67"/>
      <use x="661.083984" xlink:href="#DejaVuSans-65"/>
      <use x="722.607422" xlink:href="#DejaVuSans-72"/>
      <use x="763.720703" xlink:href="#DejaVuSans-20"/>
      <use x="795.507812" xlink:href="#DejaVuSans-64"/>
      <use x="858.984375" xlink:href="#DejaVuSans-65"/>
      <use x="920.507812" xlink:href="#DejaVuSans-6c"/>
      <use x="948.291016" xlink:href="#DejaVuSans-69"/>
      <use x="976.074219" xlink:href="#DejaVuSans-76"/>
      <use x="1035.253906" xlink:href="#DejaVuSans-65"/>
      <use x="1096.777344" xlink:href="#DejaVuSans-72"/>
      <use x="1135.640625" xlink:href="#DejaVuSans-65"/>
      <use x="1197.164062" xlink:href="#DejaVuSans-64"/>
     </g>
    </g>
   </g>
   <g id="matplotlib.axis_2">
    <g id="ytick_1">
     <g id="line2d_11">
      <path clip-path="url(#p9ea21df44f)" d="M 57.6 295.488 
L 414.72 295.488 
" style="fill:none;stroke:#b0b0b0;stroke-linecap:square;stroke-width:0.8;"/>
     </g>
     <g id="line2d_12">
      <defs>
       <path d="M 0 0 
L -3.5 0 
" id="m263f9dbc10" style="stroke:#000000;stroke-width:0.8;"/>
      </defs>
      <g>
       <use style="stroke:#000000;stroke-width:0.8;" x="57.6" xlink:href="#m263f9dbc10" y="295.488"/>
      </g>
     </g>
     <g id="text_7">
      <!-- 0 -->
      <g transform="translate(44.2375 299.287219)scale(0.1 -0.1)">
       <use xlink:href="#DejaVuSans-30"/>
      </g>
     </g>
    </g>
    <g id="ytick_2">
     <g id="line2d_13">
      <path clip-path="url(#p9ea21df44f)" d="M 57.6 236.536884 
L 414.72 236.536884 
" style="fill:none;stroke:#b0b0b0;stroke-linecap:square;stroke-width:0.8;"/>
     </g>
     <g id="line2d_14">
      <g>
       <use style="stroke:#000000;stroke-width:0.8;" x="57.6" xlink:href="#m263f9dbc10" y="236.536884"/>
      </g>
     </g>
     <g id="text_8">
      <!-- 1000 -->
      <g transform="translate(25.15 240.336103)scale(0.1 -0.1)">
       <defs>
        <path d="M 794 531 
L 1825 531 
L 1825 4091 
L 703 3866 
L 703 4441 
L 1819 4666 
L 2450 4666 
L 2450 531 
L 3481 531 
L 3481 0 
L 794 0 
L 794 531 
z
" id="DejaVuSans-31" transform="scale(0.015625)"/>
       </defs>
       <use xlink:href="#DejaVuSans-31"/>
       <use x="63.623047" xlink:href="#DejaVuSans-30"/>
       <use x="127.246094" xlink:href="#DejaVuSans-30"/>
       <use x="190.869141" xlink:href="#DejaVuSans-30"/>
      </g>
     </g>
    </g>
    <g id="ytick_3">
     <g id="line2d_15">
      <path clip-path="url(#p9ea21df44f)" d="M 57.6 177.585769 
L 414.72 177.585769 
" style="fill:none;stroke:#b0b0b0;stroke-linecap:square;stroke-width:0.8;"/>
     </g>
     <g id="line2d_16">
      <g>
       <use style="stroke:#000000;stroke-width:0.8;" x="57.6" xlink:href="#m263f9dbc10" y="177.585769"/>
      </g>
     </g>
     <g id="text_9">
      <!-- 2000 -->
      <g transform="translate(25.15 181.384987)scale(0.1 -0.1)">
       <use xlink:href="#DejaVuSans-32"/>
       <use x="63.623047" xlink:href="#DejaVuSans-30"/>
       <use x="127.246094" xlink:href="#DejaVuSans-30"/>
       <use x="190.869141" xlink:href="#DejaVuSans-30"/>
      </g>
     </g>
    </g>
    <g id="ytick_4">
     <g id="line2d_17">
      <path clip-path="url(#p9ea21df44f)" d="M 57.6 118.634653 
L 414.72 118.634653 
" style="fill:none;stroke:#b0b0b0;stroke-linecap:square;stroke-width:0.8;"/>
     </g>
     <g id="line2d_18">
      <g>
       <use style="stroke:#000000;stroke-width:0.8;" x="57.6" xlink:href="#m263f9dbc10" y="118.634653"/>
      </g>
     </g>
     <g id="text_10">
      <!-- 3000 -->
      <g transform="translate(25.15 122.433872)scale(0.1 -0.1)">
       <defs>
        <path d="M 2597 2516 
Q 3050 2419 3304 2112 
Q 3559 1806 3559 1356 
Q 3559 666 3084 287 
Q 2609 -91 1734 -91 
Q 1441 -91 1130 -33 
Q 819 25 488 141 
L 488 750 
Q 750 597 1062 519 
Q 1375 441 1716 441 
Q 2309 441 2620 675 
Q 2931 909 2931 1356 
Q 2931 1769 2642 2001 
Q 2353 2234 1838 2234 
L 1294 2234 
L 1294 2753 
L 1863 2753 
Q 2328 2753 2575 2939 
Q 2822 3125 2822 3475 
Q 2822 3834 2567 4026 
Q 2313 4219 1838 4219 
Q 1578 4219 1281 4162 
Q 984 4106 628 3988 
L 628 4550 
Q 988 4650 1302 4700 
Q 1616 4750 1894 4750 
Q 2613 4750 3031 4423 
Q 3450 4097 3450 3541 
Q 3450 3153 3228 2886 
Q 3006 2619 2597 2516 
z
" id="DejaVuSans-33" transform="scale(0.015625)"/>
       </defs>
       <use xlink:href="#DejaVuSans-33"/>
       <use x="63.623047" xlink:href="#DejaVuSans-30"/>
       <use x="127.246094" xlink:href="#DejaVuSans-30"/>
       <use x="190.869141" xlink:href="#DejaVuSans-30"/>
      </g>
     </g>
    </g>
    <g id="ytick_5">
     <g id="line2d_19">
      <path clip-path="url(#p9ea21df44f)" d="M 57.6 59.683537 
L 414.72 59.683537 
" style="fill:none;stroke:#b0b0b0;stroke-linecap:square;stroke-width:0.8;"/>
     </g>
     <g id="line2d_20">
      <g>
       <use style="stroke:#000000;stroke-width:0.8;" x="57.6" xlink:href="#m263f9dbc10" y="59.683537"/>
      </g>
     </g>
     <g id="text_11">
      <!-- 4000 -->
      <g transform="translate(25.15 63.482756)scale(0.1 -0.1)">
       <use xlink:href="#DejaVuSans-34"/>
       <use x="63.623047" xlink:href="#DejaVuSans-30"/>
       <use x="127.246094" xlink:href="#DejaVuSans-30"/>
       <use x="190.869141" xlink:href="#DejaVuSans-30"/>
      </g>
     </g>
    </g>
    <g id="text_12">
     <!-- frames -->
     <g transform="translate(19.070312 191.95925)rotate(-90)scale(0.1 -0.1)">
      <defs>
       <path d="M 3328 2828 
Q 3544 3216 3844 3400 
Q 4144 3584 4550 3584 
Q 5097 3584 5394 3201 
Q 5691 2819 5691 2113 
L 5691 0 
L 5113 0 
L 5113 2094 
Q 5113 2597 4934 2840 
Q 4756 3084 4391 3084 
Q 3944 3084 3684 2787 
Q 3425 2491 3425 1978 
L 3425 0 
L 2847 0 
L 2847 2094 
Q 2847 2600 2669 2842 
Q 2491 3084 2119 3084 
Q 1678 3084 1418 2786 
Q 1159 2488 1159 1978 
L 1159 0 
L 581 0 
L 581 3500 
L 1159 3500 
L 1159 2956 
Q 1356 3278 1631 3431 
Q 1906 3584 2284 3584 
Q 2666 3584 2933 3390 
Q 3200 3197 3328 2828 
z
" id="DejaVuSans-6d" transform="scale(0.015625)"/>
      </defs>
      <use xlink:href="#DejaVuSans-66"/>
      <use x="35.205078" xlink:href="#DejaVuSans-72"/>
      <use x="76.318359" xlink:href="#DejaVuSans-61"/>
      <use x="137.597656" xlink:href="#DejaVuSans-6d"/>
      <use x="235.009766" xlink:href="#DejaVuSans-65"/>
      <use x="296.533203" xlink:href="#DejaVuSans-73"/>
     </g>
    </g>
   </g>
   <g id="line2d_21">
    <path clip-path="url(#p9ea21df44f)" d="M 73.832727 295.488 
L 74.564756 295.488 
L 74.93077 295.134293 
L 75.296784 295.205035 
L 75.662798 294.751111 
L 76.394826 294.935333 
L 76.76084 294.800237 
L 77.126855 294.497621 
L 78.590911 294.780587 
L 78.956925 294.509411 
L 79.688954 294.402606 
L 81.15301 294.609348 
L 81.885038 294.626801 
L 82.617067 274.475464 
L 83.349095 259.143546 
L 84.081123 252.169094 
L 84.447137 250.415942 
L 84.813152 249.331178 
L 85.54518 248.412855 
L 85.911194 248.257753 
L 86.277208 248.285 
L 86.643222 248.762691 
L 87.009236 249.625625 
L 88.473293 254.100003 
L 88.839307 249.090665 
L 89.205321 250.169673 
L 89.571335 245.65823 
L 89.93735 246.765558 
L 90.303364 242.844654 
L 90.669378 243.964725 
L 91.035392 240.835403 
L 91.401406 241.950762 
L 91.76742 239.358285 
L 92.133434 240.436905 
L 92.499449 239.98099 
L 93.231477 240.02155 
L 93.597491 240.010713 
L 93.963505 240.1708 
L 94.329519 240.812392 
L 94.695533 237.436397 
L 95.061548 238.420323 
L 95.427562 235.156446 
L 95.793576 236.103932 
L 96.15959 233.176671 
L 96.525604 234.165739 
L 97.257632 228.884123 
L 97.989661 225.120605 
L 98.355675 224.352209 
L 98.721689 224.00251 
L 101.283788 230.411398 
L 102.015816 230.910076 
L 102.38183 231.263371 
L 103.479873 224.177999 
L 104.577915 218.295329 
L 105.675958 214.413469 
L 106.407986 213.935682 
L 106.774 214.478154 
L 107.506028 212.894318 
L 108.238057 212.094511 
L 108.970085 211.863715 
L 109.336099 212.074578 
L 109.702113 212.455651 
L 110.800156 214.200191 
L 111.532184 215.196581 
L 111.898198 215.788899 
L 112.630227 214.178434 
L 112.996241 214.270284 
L 113.728269 215.658007 
L 114.094283 215.501427 
L 115.55834 218.162078 
L 115.924354 218.828681 
L 116.290368 219.248084 
L 116.656382 219.894185 
L 117.022396 220.243093 
L 118.120439 222.08468 
L 118.486453 222.215597 
L 119.218481 223.253547 
L 121.048552 225.956973 
L 122.146594 227.50318 
L 122.878623 226.985494 
L 123.976665 228.193593 
L 124.342679 228.677725 
L 125.074707 229.130367 
L 125.440722 229.048017 
L 125.806736 229.39473 
L 126.17275 229.141385 
L 126.538764 229.38713 
L 129.100863 232.413797 
L 131.296948 234.737756 
L 132.028976 235.497134 
L 132.761004 234.959032 
L 133.493033 234.76907 
L 133.859047 234.819085 
L 134.957089 235.901405 
L 135.323103 235.459021 
L 136.055132 234.99071 
L 137.885202 234.877544 
L 139.349259 236.049555 
L 140.813316 237.278579 
L 143.375415 236.554786 
L 143.741429 236.74352 
L 144.473457 235.977153 
L 145.205485 235.687808 
L 145.937514 235.69698 
L 147.40157 236.42657 
L 147.767584 236.662627 
L 148.499613 236.364345 
L 149.231641 236.430658 
L 150.329683 236.786163 
L 151.061712 236.536328 
L 152.159754 236.798737 
L 153.623811 237.63246 
L 155.087867 236.732243 
L 155.453881 236.994545 
L 155.819895 236.801247 
L 157.283952 237.743966 
L 157.649966 237.824325 
L 159.480037 239.044941 
L 159.846051 238.848717 
L 160.212065 238.912838 
L 160.578079 238.760431 
L 160.944093 238.841898 
L 161.310108 239.077923 
L 161.676122 239.144921 
L 162.042136 239.067154 
L 163.140178 239.319136 
L 163.872207 239.604729 
L 164.238221 239.708835 
L 165.336263 239.609858 
L 166.80032 240.434362 
L 167.532348 240.862795 
L 168.264376 240.848737 
L 168.63039 241.058888 
L 169.362419 241.102671 
L 169.728433 241.151883 
L 171.192489 241.963036 
L 171.558504 241.787053 
L 172.290532 241.913663 
L 173.388574 242.435667 
L 174.120603 242.188903 
L 175.218645 242.076381 
L 176.316688 242.409129 
L 176.682702 242.593798 
L 177.048716 242.260142 
L 177.41473 242.364327 
L 177.780744 242.099181 
L 178.146758 242.231438 
L 178.512772 242.157986 
L 178.878787 242.300379 
L 179.244801 242.273705 
L 180.708857 242.972616 
L 181.440886 242.33008 
L 181.8069 242.321861 
L 183.270956 241.796306 
L 183.63697 241.961562 
L 184.002985 241.887772 
L 184.368999 242.06467 
L 184.735013 242.049202 
L 186.199069 242.628755 
L 186.931098 242.872798 
L 187.297112 242.878394 
L 188.395154 243.276649 
L 188.761168 242.975095 
L 189.493197 242.786075 
L 191.689282 243.729833 
L 192.055296 243.753847 
L 192.42131 243.910853 
L 193.885366 244.098933 
L 194.983409 244.483743 
L 196.081451 244.922549 
L 196.81348 244.636628 
L 197.911522 244.568107 
L 198.64355 244.806071 
L 199.741593 244.312451 
L 201.205649 243.856451 
L 201.571663 243.881183 
L 201.937678 243.65435 
L 202.303692 243.683535 
L 202.669706 243.448527 
L 203.03572 243.481626 
L 203.401734 243.238879 
L 203.767748 243.262279 
L 204.133762 243.096971 
L 205.597819 243.550924 
L 207.793904 244.400032 
L 208.525932 244.378501 
L 209.623975 244.546629 
L 210.356003 243.942658 
L 210.722017 243.811924 
L 211.454045 243.962536 
L 212.186074 244.075939 
L 214.748173 244.986748 
L 215.480201 244.98619 
L 215.846215 244.653498 
L 216.212229 244.640093 
L 216.578243 244.306521 
L 216.944257 244.420243 
L 218.0423 243.661015 
L 218.774328 243.519102 
L 220.238385 243.895924 
L 220.970413 243.716925 
L 221.336427 243.845072 
L 221.702441 243.794276 
L 222.068455 243.921601 
L 222.43447 243.894042 
L 223.166498 244.005659 
L 223.532512 243.990462 
L 224.26454 244.214122 
L 224.630554 244.164702 
L 229.022724 245.237792 
L 230.852795 245.717081 
L 233.04888 246.145916 
L 233.780908 246.084946 
L 234.146922 246.197482 
L 235.976993 245.89325 
L 238.539092 246.381459 
L 239.27112 246.499753 
L 240.003149 246.247753 
L 240.735177 246.229248 
L 241.833219 246.421833 
L 242.199233 246.206402 
L 242.565248 246.313072 
L 242.931262 246.093077 
L 248.787488 247.710151 
L 249.88553 247.104545 
L 250.617559 246.801565 
L 252.081615 246.726971 
L 252.813644 246.886294 
L 253.179658 246.631212 
L 253.545672 246.701998 
L 253.911686 246.491253 
L 256.107771 247.003956 
L 257.205813 246.355768 
L 257.571827 246.319605 
L 257.937842 246.417162 
L 258.303856 246.250861 
L 258.66987 246.348167 
L 259.035884 246.217425 
L 259.401898 246.306175 
L 259.767912 246.177187 
L 260.133926 246.273875 
L 261.231969 245.995608 
L 261.597983 245.948074 
L 261.963997 246.044268 
L 262.696025 246.015243 
L 263.06204 246.103808 
L 263.794068 246.074608 
L 264.160082 246.169451 
L 264.526096 246.125362 
L 267.088195 246.635355 
L 267.820223 246.791492 
L 269.28428 246.564634 
L 270.016308 246.676366 
L 271.114351 246.947542 
L 271.480365 246.804948 
L 271.846379 246.886721 
L 272.212393 246.758769 
L 272.578407 246.833499 
L 272.944421 246.731966 
L 273.310436 246.821263 
L 273.67645 246.74739 
L 274.042464 246.835149 
L 274.408478 246.761735 
L 274.774492 246.850328 
L 275.50652 246.807621 
L 276.604563 246.954449 
L 277.336591 247.128082 
L 278.068619 247.145027 
L 279.532676 247.438234 
L 282.094775 247.836572 
L 283.558832 247.721164 
L 286.120931 247.888272 
L 288.317015 248.248473 
L 289.049044 248.286672 
L 290.879114 248.68399 
L 291.977157 248.348437 
L 292.709185 248.256346 
L 293.441213 248.390865 
L 295.637298 247.689231 
L 296.369327 247.550773 
L 296.735341 247.564802 
L 297.101355 247.389293 
L 298.199397 247.52301 
L 300.395482 247.967506 
L 300.761496 247.735413 
L 301.127511 247.812186 
L 301.493525 247.626034 
L 301.859539 247.69206 
L 302.225553 247.52009 
L 302.591567 247.588335 
L 302.957581 247.459012 
L 303.323595 247.524509 
L 303.68961 247.39045 
L 304.055624 247.45959 
L 304.421638 247.359225 
L 304.787652 247.39499 
L 305.885694 247.162846 
L 307.715765 247.433169 
L 308.447793 247.554591 
L 308.813808 247.423038 
L 309.179822 247.497673 
L 309.545836 247.390196 
L 309.91185 247.464651 
L 310.277864 247.376145 
L 310.643878 247.450392 
L 311.009892 247.36863 
L 311.375907 247.442659 
L 311.741921 247.371031 
L 312.839963 247.486648 
L 314.30402 247.616738 
L 315.036048 247.248391 
L 315.768076 247.126357 
L 319.428218 247.777423 
L 320.52626 247.786067 
L 321.258288 247.721661 
L 322.722345 247.799231 
L 323.454373 247.791282 
L 327.846543 248.363072 
L 329.3106 248.351312 
L 330.774656 248.323669 
L 331.872699 248.520577 
L 332.604727 248.381895 
L 335.166826 248.725172 
L 335.898854 248.853392 
L 338.460953 248.274263 
L 339.192981 248.394585 
L 339.558996 248.308538 
L 339.92501 248.373345 
L 340.291024 248.287564 
L 340.657038 248.352222 
L 341.023052 248.262834 
L 341.389066 248.327349 
L 341.75508 248.254967 
L 344.317179 248.602903 
L 344.683194 248.480969 
L 345.049208 248.542494 
L 346.14725 248.263092 
L 347.611307 248.475154 
L 348.343335 248.507415 
L 349.075363 248.53191 
L 350.53942 248.66228 
L 353.833547 248.2149 
L 355.297604 248.407189 
L 356.395646 248.340835 
L 356.76166 248.392685 
L 357.493689 248.248709 
L 362.617887 248.989076 
L 363.349915 249.106498 
L 364.081943 248.767533 
L 365.179986 248.494937 
L 367.010056 248.431852 
L 368.840127 248.565688 
L 369.572155 248.244255 
L 370.304184 248.13419 
L 372.134254 248.030618 
L 373.598311 247.465559 
L 375.062368 247.179135 
L 376.892438 247.077827 
L 377.990481 247.202289 
L 378.722509 247.301471 
L 380.186566 246.430894 
L 381.284608 246.037337 
L 382.38265 245.824758 
L 383.480693 245.063499 
L 384.578735 244.667977 
L 385.676778 244.68133 
L 386.408806 244.800176 
L 388.970905 243.032654 
L 389.702933 242.676056 
L 390.434962 242.623825 
L 391.899018 242.402859 
L 392.631046 242.441461 
L 398.487273 243.382118 
L 398.487273 243.382118 
" style="fill:none;stroke:#1f77b4;stroke-linecap:square;stroke-width:1.5;"/>
   </g>
   <g id="line2d_22">
    <path clip-path="url(#p9ea21df44f)" d="M 73.832727 127.595223 
L 74.564756 158.328404 
L 74.93077 166.399795 
L 75.296784 145.174445 
L 75.662798 131.918304 
L 76.028812 124.71504 
L 76.394826 120.410555 
L 77.126855 124.405967 
L 77.858883 137.34672 
L 78.590911 110.465713 
L 79.322939 84.104037 
L 80.054968 66.453091 
L 80.420982 60.145838 
L 81.15301 53.808076 
L 81.519024 53.590136 
L 81.885038 53.568 
L 85.54518 81.293587 
L 87.009236 91.432696 
L 87.741265 77.971987 
L 88.473293 74.106431 
L 89.93735 69.803479 
L 90.303364 69.083677 
L 90.669378 69.475694 
L 91.035392 68.904474 
L 91.401406 69.369567 
L 91.76742 68.846899 
L 92.133434 69.317999 
L 92.499449 69.080572 
L 93.597491 69.005317 
L 93.963505 69.248356 
L 94.329519 69.650413 
L 94.695533 71.000119 
L 95.061548 73.10241 
L 95.427562 74.369243 
L 95.793576 76.366703 
L 96.15959 77.559037 
L 96.525604 80.160161 
L 98.355675 86.684882 
L 99.087703 89.737658 
L 99.819731 85.558165 
L 100.185746 84.407474 
L 100.917774 83.638127 
L 101.283788 84.321225 
L 102.38183 89.694133 
L 103.479873 88.384823 
L 104.211901 87.933052 
L 104.943929 87.800478 
L 105.675958 87.822647 
L 106.774 88.204217 
L 110.434142 95.217636 
L 111.898198 99.638919 
L 112.630227 99.100347 
L 112.996241 99.087446 
L 113.362255 99.239195 
L 113.728269 98.962666 
L 114.094283 99.638054 
L 114.460297 99.865565 
L 114.826311 100.845502 
L 115.192326 101.110658 
L 115.55834 102.254957 
L 116.290368 102.951137 
L 117.38841 104.508492 
L 117.754425 105.140207 
L 118.120439 105.99592 
L 118.852467 106.193115 
L 119.950509 107.018962 
L 120.316524 107.378674 
L 120.682538 108.167403 
L 121.414566 107.652645 
L 121.78058 107.730483 
L 122.146594 108.038523 
L 123.976665 110.933843 
L 124.342679 111.35313 
L 125.074707 112.961549 
L 125.806736 112.982766 
L 126.538764 114.229988 
L 127.270792 112.988981 
L 127.636806 112.954235 
L 128.734849 113.30719 
L 129.466877 114.008339 
L 129.832891 114.508075 
L 130.56492 115.90703 
L 130.930934 115.599609 
L 131.296948 115.656502 
L 131.662962 115.970359 
L 132.028976 116.557732 
L 133.493033 115.388028 
L 133.859047 115.128669 
L 134.225061 114.011252 
L 134.957089 113.199571 
L 136.055132 113.794801 
L 137.885202 115.200751 
L 138.617231 116.003711 
L 138.983245 115.521771 
L 139.349259 115.926832 
L 139.715273 115.515129 
L 140.081287 115.922254 
L 140.813316 115.417973 
L 142.643386 116.88733 
L 143.741429 117.984656 
L 144.839471 117.114621 
L 145.571499 116.735051 
L 147.035556 116.298019 
L 147.767584 116.296065 
L 150.329683 118.87158 
L 151.427726 118.272367 
L 152.525768 117.874566 
L 153.623811 118.463453 
L 155.087867 118.252925 
L 155.453881 118.441483 
L 155.819895 118.402517 
L 156.18591 118.593961 
L 157.283952 119.628584 
L 157.649966 119.537374 
L 158.381994 120.50381 
L 159.114023 120.694163 
L 159.480037 120.826882 
L 159.846051 120.762639 
L 160.212065 121.174775 
L 160.578079 121.114563 
L 160.944093 121.526711 
L 161.310108 121.618071 
L 162.774164 123.165191 
L 163.506192 123.408735 
L 166.068291 126.047581 
L 166.434306 125.822976 
L 167.166334 126.21701 
L 167.532348 126.557041 
L 168.264376 126.791302 
L 168.63039 127.223831 
L 169.728433 127.263034 
L 170.460461 126.633763 
L 171.192489 126.257673 
L 171.924518 126.579247 
L 173.388574 127.536056 
L 175.218645 127.089473 
L 176.316688 126.962914 
L 176.682702 126.600788 
L 177.048716 126.860313 
L 177.41473 126.70203 
L 177.780744 126.992887 
L 178.146758 126.83937 
L 178.512772 127.13183 
L 178.878787 126.982991 
L 179.244801 127.277009 
L 179.610815 127.132761 
L 180.342843 127.721604 
L 180.708857 128.077495 
L 181.8069 128.281724 
L 183.270956 129.331333 
L 183.63697 128.966571 
L 184.735013 129.846612 
L 185.101027 129.6272 
L 185.467041 129.620367 
L 186.199069 130.291471 
L 186.931098 130.619605 
L 188.395154 131.915739 
L 189.493197 131.408635 
L 189.859211 131.418332 
L 190.591239 131.752934 
L 190.957253 132.032534 
L 191.323267 132.079901 
L 193.519352 133.732429 
L 195.715437 132.390384 
L 196.081451 132.37783 
L 197.545508 133.171407 
L 198.64355 133.827321 
L 200.473621 132.987806 
L 200.839635 132.538816 
L 201.205649 132.40489 
L 201.571663 131.975459 
L 201.937678 132.063919 
L 202.303692 131.641245 
L 202.669706 131.733491 
L 203.03572 131.329293 
L 203.401734 131.425219 
L 203.767748 131.027469 
L 204.133762 131.127005 
L 204.499777 130.758987 
L 204.865791 130.920295 
L 205.597819 130.155595 
L 206.695861 129.745157 
L 207.061876 129.686453 
L 208.159918 129.915141 
L 209.623975 129.658195 
L 210.722017 130.238905 
L 211.088031 130.484925 
L 212.186074 129.147084 
L 213.284116 129.692771 
L 214.016144 129.09648 
L 214.748173 129.021809 
L 215.480201 129.440788 
L 215.846215 129.462564 
L 216.212229 129.685115 
L 216.578243 129.70917 
L 216.944257 129.932965 
L 218.774328 130.198278 
L 219.506356 130.354696 
L 220.238385 130.7433 
L 221.702441 130.755294 
L 222.43447 130.725715 
L 223.166498 130.761575 
L 223.898526 131.206158 
L 224.996569 131.371227 
L 225.728597 131.763888 
L 226.094611 131.54622 
L 226.460625 131.462726 
L 226.826639 131.504287 
L 227.192653 131.424098 
L 227.924682 131.510443 
L 228.290696 131.730302 
L 229.388738 131.938924 
L 230.120767 132.251397 
L 232.682866 132.017641 
L 234.512936 132.818024 
L 234.87895 132.840001 
L 236.343007 133.56346 
L 237.075035 134.015751 
L 238.905106 131.970126 
L 239.27112 131.717636 
L 241.467205 131.235936 
L 244.395318 130.862276 
L 245.127347 130.934445 
L 245.859375 131.250567 
L 246.957417 130.26046 
L 248.05546 129.590786 
L 248.787488 129.600422 
L 249.88553 129.973203 
L 250.983573 130.115049 
L 251.349587 129.836699 
L 251.715601 129.891774 
L 252.081615 129.617439 
L 252.447629 129.675148 
L 252.813644 129.404781 
L 253.179658 129.537128 
L 253.545672 129.270537 
L 253.911686 129.43048 
L 254.2777 129.167571 
L 254.643714 129.337913 
L 255.009728 129.29708 
L 255.741757 129.510305 
L 256.107771 129.744871 
L 257.937842 129.318607 
L 258.303856 129.365974 
L 258.66987 129.272417 
L 259.035884 129.330269 
L 259.401898 129.247711 
L 261.597983 129.71127 
L 261.963997 129.403706 
L 262.696025 129.66159 
L 263.06204 129.35818 
L 263.794068 129.619287 
L 264.160082 129.334337 
L 264.526096 129.444052 
L 264.89211 129.162781 
L 267.454209 130.038691 
L 267.820223 130.212386 
L 269.28428 130.343006 
L 270.382322 130.859997 
L 271.846379 130.61489 
L 272.212393 130.472754 
L 272.578407 130.466706 
L 272.944421 130.342886 
L 273.310436 130.35448 
L 273.67645 130.233474 
L 274.042464 130.350219 
L 274.408478 130.239433 
L 274.774492 130.364425 
L 276.238549 130.059784 
L 277.702605 130.216751 
L 278.434634 130.607414 
L 279.166662 130.457499 
L 280.996733 130.983716 
L 281.728761 131.026406 
L 283.192817 131.710895 
L 284.656874 131.236706 
L 286.120931 131.218535 
L 286.486945 131.381262 
L 286.852959 131.110549 
L 287.218973 131.06597 
L 287.951001 131.343347 
L 290.5131 130.031107 
L 291.245129 130.093561 
L 292.343171 130.441536 
L 293.075199 130.730243 
L 293.441213 130.541896 
L 295.637298 130.268224 
L 296.735341 130.200669 
L 297.467369 130.415244 
L 298.199397 130.582047 
L 298.931426 130.767482 
L 299.29744 130.895721 
L 301.493525 130.536817 
L 302.591567 130.491644 
L 303.68961 130.376891 
L 305.153666 130.38511 
L 305.885694 130.272717 
L 306.251709 129.953082 
L 306.617723 129.900517 
L 306.983737 129.584315 
L 307.349751 129.547436 
L 307.715765 129.234616 
L 308.813808 129.229351 
L 311.009892 129.450502 
L 313.571991 129.935474 
L 313.938006 129.9556 
L 314.30402 130.125283 
L 315.768076 129.879178 
L 317.598147 130.114654 
L 318.696189 130.33645 
L 319.428218 130.435754 
L 320.160246 130.734676 
L 322.356331 130.568613 
L 325.284444 131.03975 
L 326.016472 131.111614 
L 327.114515 131.42628 
L 328.578571 131.309058 
L 330.774656 131.883392 
L 331.14067 131.724145 
L 332.604727 131.71897 
L 333.702769 131.792277 
L 334.800812 132.031996 
L 335.898854 131.702726 
L 338.826967 132.090631 
L 341.389066 131.964934 
L 343.219137 132.079027 
L 345.415222 132.45508 
L 346.513264 132.755263 
L 347.245293 132.69678 
L 348.709349 133.079558 
L 349.075363 133.180939 
L 349.441377 132.990032 
L 350.173406 132.931858 
L 350.53942 133.070123 
L 353.101519 133.228064 
L 354.199561 133.484724 
L 355.663618 133.137774 
L 357.127674 133.073112 
L 357.493689 133.114825 
L 358.225717 132.310782 
L 358.591731 132.016708 
L 359.689773 131.746904 
L 360.787816 131.717445 
L 361.519844 131.938954 
L 362.617887 131.109754 
L 363.349915 130.84855 
L 365.912014 131.082487 
L 368.474113 131.503477 
L 369.206141 131.077643 
L 370.670198 130.556935 
L 371.76824 130.303068 
L 374.696353 130.525731 
L 377.258452 130.905079 
L 377.990481 130.667554 
L 379.088523 130.591916 
L 381.650622 129.746028 
L 382.748665 129.592793 
L 384.944749 129.897156 
L 385.310764 129.958042 
L 386.042792 129.948987 
L 386.408806 130.000497 
L 389.702933 129.25527 
L 390.434962 129.244016 
L 392.997061 129.413186 
L 394.095103 129.200968 
L 395.55916 128.716701 
L 397.38923 128.339672 
L 398.121259 128.316061 
L 398.487273 128.366433 
L 398.487273 128.366433 
" style="fill:none;stroke:#ff7f0e;stroke-linecap:square;stroke-width:1.5;"/>
   </g>
   <g id="patch_3">
    <path d="M 57.6 307.584 
L 57.6 41.472 
" style="fill:none;stroke:#000000;stroke-linecap:square;stroke-linejoin:miter;stroke-width:0.8;"/>
   </g>
   <g id="patch_4">
    <path d="M 414.72 307.584 
L 414.72 41.472 
" style="fill:none;stroke:#000000;stroke-linecap:square;stroke-linejoin:miter;stroke-width:0.8;"/>
   </g>
   <g id="patch_5">
    <path d="M 57.6 307.584 
L 414.72 307.584 
" style="fill:none;stroke:#000000;stroke-linecap:square;stroke-linejoin:miter;stroke-width:0.8;"/>
   </g>
   <g id="patch_6">
    <path d="M 57.6 41.472 
L 414.72 41.472 
" style="fill:none;stroke:#000000;stroke-linecap:square;stroke-linejoin:miter;stroke-width:0.8;"/>
   </g>
   <g id="text_13">
    <!-- strategyh -->
    <g transform="translate(207.331875 35.472)scale(0.12 -0.12)">
     <defs>
      <path d="M 1172 4494 
L 1172 3500 
L 2356 3500 
L 2356 3053 
L 1172 3053 
L 1172 1153 
Q 1172 725 1289 603 
Q 1406 481 1766 481 
L 2356 481 
L 2356 0 
L 1766 0 
Q 1100 0 847 248 
Q 594 497 594 1153 
L 594 3053 
L 172 3053 
L 172 3500 
L 594 3500 
L 594 4494 
L 1172 4494 
z
" id="DejaVuSans-74" transform="scale(0.015625)"/>
      <path d="M 2059 -325 
Q 1816 -950 1584 -1140 
Q 1353 -1331 966 -1331 
L 506 -1331 
L 506 -850 
L 844 -850 
Q 1081 -850 1212 -737 
Q 1344 -625 1503 -206 
L 1606 56 
L 191 3500 
L 800 3500 
L 1894 763 
L 2988 3500 
L 3597 3500 
L 2059 -325 
z
" id="DejaVuSans-79" transform="scale(0.015625)"/>
      <path d="M 3513 2113 
L 3513 0 
L 2938 0 
L 2938 2094 
Q 2938 2591 2744 2837 
Q 2550 3084 2163 3084 
Q 1697 3084 1428 2787 
Q 1159 2491 1159 1978 
L 1159 0 
L 581 0 
L 581 4863 
L 1159 4863 
L 1159 2956 
Q 1366 3272 1645 3428 
Q 1925 3584 2291 3584 
Q 2894 3584 3203 3211 
Q 3513 2838 3513 2113 
z
" id="DejaVuSans-68" transform="scale(0.015625)"/>
     </defs>
     <use xlink:href="#DejaVuSans-73"/>
     <use x="52.099609" xlink:href="#DejaVuSans-74"/>
     <use x="91.308594" xlink:href="#DejaVuSans-72"/>
     <use x="132.421875" xlink:href="#DejaVuSans-61"/>
     <use x="193.701172" xlink:href="#DejaVuSans-74"/>
     <use x="232.910156" xlink:href="#DejaVuSans-65"/>
     <use x="294.433594" xlink:href="#DejaVuSans-67"/>
     <use x="357.910156" xlink:href="#DejaVuSans-79"/>
     <use x="417.089844" xlink:href="#DejaVuSans-68"/>
    </g>
   </g>
   <g id="legend_1">
    <g id="patch_7">
     <path d="M 63.1712 62.76096 
L 352.947763 62.76096 
Q 354.947763 62.76096 354.947763 60.76096 
L 354.947763 47.082835 
Q 354.947763 45.082835 352.947763 45.082835 
L 63.1712 45.082835 
Q 61.1712 45.082835 61.1712 47.082835 
L 61.1712 60.76096 
Q 61.1712 62.76096 63.1712 62.76096 
z
" style="fill:#ffffff;opacity:0.8;stroke:#cccccc;stroke-linejoin:miter;"/>
    </g>
    <g id="line2d_23">
     <path d="M 65.1712 53.181273 
L 85.1712 53.181273 
" style="fill:none;stroke:#1f77b4;stroke-linecap:square;stroke-width:1.5;"/>
    </g>
    <g id="line2d_24"/>
    <g id="text_14">
     <!-- average waiting time -->
     <g transform="translate(93.1712 56.681273)scale(0.1 -0.1)">
      <defs>
       <path d="M 269 3500 
L 844 3500 
L 1563 769 
L 2278 3500 
L 2956 3500 
L 3675 769 
L 4391 3500 
L 4966 3500 
L 4050 0 
L 3372 0 
L 2619 2869 
L 1863 0 
L 1184 0 
L 269 3500 
z
" id="DejaVuSans-77" transform="scale(0.015625)"/>
      </defs>
      <use xlink:href="#DejaVuSans-61"/>
      <use x="61.279297" xlink:href="#DejaVuSans-76"/>
      <use x="120.458984" xlink:href="#DejaVuSans-65"/>
      <use x="181.982422" xlink:href="#DejaVuSans-72"/>
      <use x="223.095703" xlink:href="#DejaVuSans-61"/>
      <use x="284.375" xlink:href="#DejaVuSans-67"/>
      <use x="347.851562" xlink:href="#DejaVuSans-65"/>
      <use x="409.375" xlink:href="#DejaVuSans-20"/>
      <use x="441.162109" xlink:href="#DejaVuSans-77"/>
      <use x="522.949219" xlink:href="#DejaVuSans-61"/>
      <use x="584.228516" xlink:href="#DejaVuSans-69"/>
      <use x="612.011719" xlink:href="#DejaVuSans-74"/>
      <use x="651.220703" xlink:href="#DejaVuSans-69"/>
      <use x="679.003906" xlink:href="#DejaVuSans-6e"/>
      <use x="742.382812" xlink:href="#DejaVuSans-67"/>
      <use x="805.859375" xlink:href="#DejaVuSans-20"/>
      <use x="837.646484" xlink:href="#DejaVuSans-74"/>
      <use x="876.855469" xlink:href="#DejaVuSans-69"/>
      <use x="904.638672" xlink:href="#DejaVuSans-6d"/>
      <use x="1002.050781" xlink:href="#DejaVuSans-65"/>
     </g>
    </g>
    <g id="line2d_25">
     <path d="M 219.529013 53.181273 
L 239.529013 53.181273 
" style="fill:none;stroke:#ff7f0e;stroke-linecap:square;stroke-width:1.5;"/>
    </g>
    <g id="line2d_26"/>
    <g id="text_15">
     <!-- average on bus time -->
     <g transform="translate(247.529013 56.681273)scale(0.1 -0.1)">
      <defs>
       <path d="M 3116 1747 
Q 3116 2381 2855 2742 
Q 2594 3103 2138 3103 
Q 1681 3103 1420 2742 
Q 1159 2381 1159 1747 
Q 1159 1113 1420 752 
Q 1681 391 2138 391 
Q 2594 391 2855 752 
Q 3116 1113 3116 1747 
z
M 1159 2969 
Q 1341 3281 1617 3432 
Q 1894 3584 2278 3584 
Q 2916 3584 3314 3078 
Q 3713 2572 3713 1747 
Q 3713 922 3314 415 
Q 2916 -91 2278 -91 
Q 1894 -91 1617 61 
Q 1341 213 1159 525 
L 1159 0 
L 581 0 
L 581 4863 
L 1159 4863 
L 1159 2969 
z
" id="DejaVuSans-62" transform="scale(0.015625)"/>
       <path d="M 544 1381 
L 544 3500 
L 1119 3500 
L 1119 1403 
Q 1119 906 1312 657 
Q 1506 409 1894 409 
Q 2359 409 2629 706 
Q 2900 1003 2900 1516 
L 2900 3500 
L 3475 3500 
L 3475 0 
L 2900 0 
L 2900 538 
Q 2691 219 2414 64 
Q 2138 -91 1772 -91 
Q 1169 -91 856 284 
Q 544 659 544 1381 
z
M 1991 3584 
L 1991 3584 
z
" id="DejaVuSans-75" transform="scale(0.015625)"/>
      </defs>
      <use xlink:href="#DejaVuSans-61"/>
      <use x="61.279297" xlink:href="#DejaVuSans-76"/>
      <use x="120.458984" xlink:href="#DejaVuSans-65"/>
      <use x="181.982422" xlink:href="#DejaVuSans-72"/>
      <use x="223.095703" xlink:href="#DejaVuSans-61"/>
      <use x="284.375" xlink:href="#DejaVuSans-67"/>
      <use x="347.851562" xlink:href="#DejaVuSans-65"/>
      <use x="409.375" xlink:href="#DejaVuSans-20"/>
      <use x="441.162109" xlink:href="#DejaVuSans-6f"/>
      <use x="502.34375" xlink:href="#DejaVuSans-6e"/>
      <use x="565.722656" xlink:href="#DejaVuSans-20"/>
      <use x="597.509766" xlink:href="#DejaVuSans-62"/>
      <use x="660.986328" xlink:href="#DejaVuSans-75"/>
      <use x="724.365234" xlink:href="#DejaVuSans-73"/>
      <use x="776.464844" xlink:href="#DejaVuSans-20"/>
      <use x="808.251953" xlink:href="#DejaVuSans-74"/>
      <use x="847.460938" xlink:href="#DejaVuSans-69"/>
      <use x="875.244141" xlink:href="#DejaVuSans-6d"/>
      <use x="972.65625" xlink:href="#DejaVuSans-65"/>
     </g>
    </g>
   </g>
  </g>
 </g>
 <defs>
  <clipPath id="p9ea21df44f">
   <rect height="266.112" width="357.12" x="57.6" y="41.472"/>
  </clipPath>
 </defs>
</svg>
